<?xml version="1.0" encoding="UTF-8"?>
<!DOCTYPE svg PUBLIC "-//W3C//DTD SVG 1.1//EN" "http://www.w3.org/Graphics/SVG/1.1/DTD/svg11.dtd">
<svg xmlns="http://www.w3.org/2000/svg" version="1.1" width="150px" height="150px" style="shape-rendering:geometricPrecision; text-rendering:geometricPrecision; image-rendering:optimizeQuality; fill-rule:evenodd; clip-rule:evenodd" xmlns:xlink="http://www.w3.org/1999/xlink">
<g><path style="opacity:0.803" fill="#0ec9ab" d="M 58.5,-0.5 C 61.5,-0.5 64.5,-0.5 67.5,-0.5C 70.7021,2.97485 71.7021,6.97485 70.5,11.5C 73.5865,11.5431 76.5865,11.7097 79.5,12C 77.5517,6.98405 78.5517,2.81739 82.5,-0.5C 85.1667,-0.5 87.8333,-0.5 90.5,-0.5C 96.1663,5.34934 95.6663,10.6827 89,15.5C 88.3333,22.5 88.3333,29.5 89,36.5C 99.3623,41.3624 106.862,49.029 111.5,59.5C 118.811,60.6646 126.144,60.8313 133.5,60C 138.191,53.2761 143.525,52.7761 149.5,58.5C 149.5,61.5 149.5,64.5 149.5,67.5C 145.991,70.1149 141.991,71.1149 137.5,70.5C 137.845,74.1151 137.178,77.4484 135.5,80.5C 140.348,77.6874 145.015,78.0207 149.5,81.5C 149.5,84.5 149.5,87.5 149.5,90.5C 143.525,96.2239 138.191,95.7239 133.5,89C 126.167,88.3333 118.833,88.3333 111.5,89C 106.83,99.5074 99.1634,106.674 88.5,110.5C 88.3336,118.174 88.5003,125.841 89,133.5C 95.6663,138.317 96.1663,143.651 90.5,149.5C 87.8333,149.5 85.1667,149.5 82.5,149.5C 80.8564,148.684 79.6897,147.35 79,145.5C 78.5026,142.854 78.3359,140.187 78.5,137.5C 69.8477,138.014 66.3477,134.014 68,125.5C 68.6667,123.5 70,122.167 72,121.5C 72.4974,118.854 72.6641,116.187 72.5,113.5C 70.4086,113.682 68.4086,113.348 66.5,112.5C 65.1667,119.833 65.1667,127.167 66.5,134.5C 72.7329,139.063 73.0662,144.063 67.5,149.5C 64.5,149.5 61.5,149.5 58.5,149.5C 52.9208,143.571 53.4208,138.237 60,133.5C 60.4997,125.841 60.6664,118.174 60.5,110.5C 49.8366,106.674 42.17,99.5074 37.5,89C 30.1667,88.3333 22.8333,88.3333 15.5,89C 10.8088,95.7239 5.47544,96.2239 -0.5,90.5C -0.5,87.8333 -0.5,85.1667 -0.5,82.5C 0.316435,80.8564 1.64977,79.6897 3.5,79C 6.14603,78.5026 8.8127,78.3359 11.5,78.5C 11.3421,69.1422 15.6754,65.6422 24.5,68C 27.1467,71.7563 30.8134,73.2563 35.5,72.5C 35.5,70.1667 35.5,67.8333 35.5,65.5C 28.825,65.3337 22.1583,65.5004 15.5,66C 10.2266,71.8294 4.8933,71.9961 -0.5,66.5C -0.5,63.8333 -0.5,61.1667 -0.5,58.5C 5.47544,52.7761 10.8088,53.2761 15.5,60C 22.856,60.8313 30.1893,60.6646 37.5,59.5C 41.9744,48.6894 49.641,41.3561 60.5,37.5C 60.6663,30.1591 60.4997,22.8258 60,15.5C 53.4208,10.7625 52.9208,5.42921 58.5,-0.5 Z M 62.5,3.5 C 67.5069,5.63094 67.6735,7.96427 63,10.5C 58.5571,8.36902 58.3904,6.03569 62.5,3.5 Z M 85.5,3.5 C 90.3057,5.24106 90.639,7.5744 86.5,10.5C 82.8646,8.67779 82.5313,6.34445 85.5,3.5 Z M 80.5,13.5 C 81.1499,13.8039 81.8165,14.1373 82.5,14.5C 83.8333,21.5 83.8333,28.5 82.5,35.5C 80.5914,34.6518 78.5914,34.3184 76.5,34.5C 76.3367,32.1432 76.5034,29.8098 77,27.5C 82.548,23.9747 83.7147,19.308 80.5,13.5 Z M 72.5,16.5 C 77.0408,16.8152 78.0408,18.6485 75.5,22C 70.6756,22.1833 69.6756,20.3499 72.5,16.5 Z M 65.5,22.5 C 66.7847,24.4516 68.4514,26.1182 70.5,27.5C 71.4742,29.7427 71.8076,32.076 71.5,34.5C 69.7376,34.3573 68.0709,34.6906 66.5,35.5C 65.5078,31.2172 65.1744,26.8839 65.5,22.5 Z M 67.5,39.5 C 90.2475,38.1058 104.081,48.4391 109,70.5C 109.038,90.2613 99.5376,102.761 80.5,108C 62.0945,109.885 49.2611,102.385 42,85.5C 37.2162,62.7298 45.7162,47.3964 67.5,39.5 Z M 79.5,53.5 C 76.1667,52.1667 72.8333,52.1667 69.5,53.5C 72.8333,50.8333 76.1667,50.8333 79.5,53.5 Z M 80.5,54.5 C 81.8333,54.5 82.5,55.1667 82.5,56.5C 81.5,56.1667 80.8333,55.5 80.5,54.5 Z M 66.5,56.5 C 65.6708,61.453 65.3375,66.453 65.5,71.5C 65.1667,71.5 64.8333,71.5 64.5,71.5C 64.3343,67.1539 64.501,62.8206 65,58.5C 65.2784,57.5842 65.7784,56.9175 66.5,56.5 Z M 73.5,57.5 C 75.1703,57.7512 76.6703,58.4178 78,59.5C 78.4974,62.146 78.6641,64.8127 78.5,67.5C 75.8333,67.5 73.1667,67.5 70.5,67.5C 69.8578,63.5251 70.8578,60.1918 73.5,57.5 Z M 5.5,59.5 C 9.48498,59.6294 10.8183,61.4628 9.5,65C 4.72816,65.8104 3.39483,63.9771 5.5,59.5 Z M 140.5,59.5 C 143.114,59.2771 144.781,60.4438 145.5,63C 143.74,65.4825 141.573,65.9825 139,64.5C 138.387,62.5048 138.887,60.8381 140.5,59.5 Z M 113.5,65.5 C 117.846,65.3343 122.179,65.501 126.5,66C 124.36,66.9733 122.693,68.4733 121.5,70.5C 115.872,73.0334 113.206,71.3668 113.5,65.5 Z M 128.5,70.5 C 131.966,71.109 132.966,72.9423 131.5,76C 128.763,77.0798 127.096,76.2464 126.5,73.5C 126.942,72.2613 127.609,71.2613 128.5,70.5 Z M 19.5,71.5 C 24.5069,73.6309 24.6735,75.9643 20,78.5C 15.5571,76.369 15.3904,74.0357 19.5,71.5 Z M 135.5,80.5 C 135.196,81.1499 134.863,81.8165 134.5,82.5C 127.532,83.497 120.532,83.8303 113.5,83.5C 112.422,76.9347 115.089,74.768 121.5,77C 122.167,79 123.5,80.3333 125.5,81C 128.888,81.6588 132.221,81.4922 135.5,80.5 Z M 27.5,77.5 C 30.1667,77.5 32.8333,77.5 35.5,77.5C 35.2606,79.4672 35.5939,81.3005 36.5,83C 31.8333,83.6667 27.1667,83.6667 22.5,83C 25.079,81.9243 26.7457,80.091 27.5,77.5 Z M 72.5,77.5 C 75.2605,76.9147 76.9272,77.9147 77.5,80.5C 75.1637,91.1811 73.1637,91.0145 71.5,80C 71.7432,79.0979 72.0766,78.2646 72.5,77.5 Z M 5.5,83.5 C 10.5867,83.2845 11.5867,85.1178 8.5,89C 4.53694,89.1177 3.53694,87.2843 5.5,83.5 Z M 139.5,83.5 C 144.53,83.309 145.863,85.1423 143.5,89C 139.266,89.267 137.933,87.4336 139.5,83.5 Z M 81.5,112.5 C 82.8048,114.397 83.4714,116.731 83.5,119.5C 83.3333,121.833 83.1667,124.167 83,126.5C 82.0267,124.36 80.5267,122.693 78.5,121.5C 77.52,118.914 77.1866,116.247 77.5,113.5C 79.099,113.768 80.4324,113.434 81.5,112.5 Z M 73.5,126.5 C 78.5867,126.284 79.5867,128.118 76.5,132C 72.5369,132.118 71.5369,130.284 73.5,126.5 Z M 61.5,138.5 C 66.9137,139.962 67.4137,142.295 63,145.5C 59.056,143.845 58.556,141.512 61.5,138.5 Z M 84.5,138.5 C 90.3325,139.818 90.8325,142.151 86,145.5C 83.4341,143.573 82.9341,141.24 84.5,138.5 Z"/></g>
<g><path style="opacity:0.861" fill="#19c9ad" d="M 70.5,46.5 C 84.8125,46.1498 91.1459,53.1498 89.5,67.5C 91.5824,67.472 93.4157,68.1387 95,69.5C 95.6667,78.5 95.6667,87.5 95,96.5C 94.5,97 94,97.5 93.5,98C 80.8333,98.6667 68.1667,98.6667 55.5,98C 55,97.5 54.5,97 54,96.5C 53.3333,87.8333 53.3333,79.1667 54,70.5C 55.1739,68.3291 57.0072,67.3291 59.5,67.5C 57.7286,57.3885 61.3953,50.3885 70.5,46.5 Z M 79.5,53.5 C 76.1667,52.1667 72.8333,52.1667 69.5,53.5C 72.8333,50.8333 76.1667,50.8333 79.5,53.5 Z M 80.5,54.5 C 81.8333,54.5 82.5,55.1667 82.5,56.5C 81.5,56.1667 80.8333,55.5 80.5,54.5 Z M 66.5,56.5 C 65.6708,61.453 65.3375,66.453 65.5,71.5C 65.1667,71.5 64.8333,71.5 64.5,71.5C 64.3343,67.1539 64.501,62.8206 65,58.5C 65.2784,57.5842 65.7784,56.9175 66.5,56.5 Z M 73.5,57.5 C 70.8578,60.1918 69.8578,63.5251 70.5,67.5C 73.1667,67.5 75.8333,67.5 78.5,67.5C 78.6641,64.8127 78.4974,62.146 78,59.5C 76.6703,58.4178 75.1703,57.7512 73.5,57.5 Z M 72.5,77.5 C 72.0766,78.2646 71.7432,79.0979 71.5,80C 73.1637,91.0145 75.1637,91.1811 77.5,80.5C 76.9272,77.9147 75.2605,76.9147 72.5,77.5 Z"/></g>
<g><path style="opacity:0.804" fill="#14c9ad" d="M 79.5,53.5 C 79.5,54.1667 79.8333,54.5 80.5,54.5C 80.8333,55.5 81.5,56.1667 82.5,56.5C 82.3284,57.4916 82.6618,58.1583 83.5,58.5C 83.5,62.8333 83.5,67.1667 83.5,71.5C 77.5992,72.8057 71.5992,72.8057 65.5,71.5C 65.3375,66.453 65.6708,61.453 66.5,56.5C 67.1667,56.5 67.5,56.1667 67.5,55.5C 68.1667,55.5 68.5,55.1667 68.5,54.5C 69.1667,54.5 69.5,54.1667 69.5,53.5C 72.8333,52.1667 76.1667,52.1667 79.5,53.5 Z M 73.5,57.5 C 70.8578,60.1918 69.8578,63.5251 70.5,67.5C 73.1667,67.5 75.8333,67.5 78.5,67.5C 78.6641,64.8127 78.4974,62.146 78,59.5C 76.6703,58.4178 75.1703,57.7512 73.5,57.5 Z"/></g>
<g><path style="opacity:0.998" fill="#fdfefe" d="M 64.5,71.5 C 64.8333,71.5 65.1667,71.5 65.5,71.5C 71.5992,72.8057 77.5992,72.8057 83.5,71.5C 83.8333,71.5 84.1667,71.5 84.5,71.5C 86.2646,72.4614 88.2646,72.7947 90.5,72.5C 90.5,79.5 90.5,86.5 90.5,93.5C 79.8333,93.5 69.1667,93.5 58.5,93.5C 58.5,86.5 58.5,79.5 58.5,72.5C 60.7354,72.7947 62.7354,72.4614 64.5,71.5 Z M 72.5,77.5 C 72.0766,78.2646 71.7432,79.0979 71.5,80C 73.1637,91.0145 75.1637,91.1811 77.5,80.5C 76.9272,77.9147 75.2605,76.9147 72.5,77.5 Z"/></g>
<g><path style="opacity:0.818" fill="#38ceb5" d="M 71.5,74.5 C 74.9705,73.8748 77.8038,74.8748 80,77.5C 80.5034,81.9904 79.67,86.157 77.5,90C 74.1658,91.2121 71.6658,90.3788 70,87.5C 67.5303,82.7307 68.0303,78.3974 71.5,74.5 Z M 72.5,77.5 C 72.0766,78.2646 71.7432,79.0979 71.5,80C 73.1637,91.0145 75.1637,91.1811 77.5,80.5C 76.9272,77.9147 75.2605,76.9147 72.5,77.5 Z"/></g>
<g><path style="opacity:1" fill="#d7f5f0" d="M 90.5,72.5 C 91.4916,79.6476 91.825,86.9809 91.5,94.5C 80.3206,94.8279 69.3206,94.4946 58.5,93.5C 69.1667,93.5 79.8333,93.5 90.5,93.5C 90.5,86.5 90.5,79.5 90.5,72.5 Z"/></g>
</svg>
