<?xml version="1.0" encoding="UTF-8"?>
<!DOCTYPE svg PUBLIC "-//W3C//DTD SVG 1.1//EN" "http://www.w3.org/Graphics/SVG/1.1/DTD/svg11.dtd">
<svg xmlns="http://www.w3.org/2000/svg" version="1.1" width="954px" height="358px" style="shape-rendering:geometricPrecision; text-rendering:geometricPrecision; image-rendering:optimizeQuality; fill-rule:evenodd; clip-rule:evenodd" xmlns:xlink="http://www.w3.org/1999/xlink">
<g><path style="opacity:0.903" fill="#3078bf" d="M 53.5,-0.5 C 56.5,-0.5 59.5,-0.5 62.5,-0.5C 63.6935,0.271873 64.6935,1.27187 65.5,2.5C 64.4726,4.19416 63.1392,5.5275 61.5,6.5C 54.9843,4.68838 52.3177,7.02171 53.5,13.5C 51.2512,14.0798 49.5846,15.4131 48.5,17.5C 45.7983,12.5543 45.965,7.55434 49,2.5C 50.6516,1.60064 52.1516,0.60064 53.5,-0.5 Z"/></g>
<g><path style="opacity:0.878" fill="#3083c7" d="M 65.5,2.5 C 68.149,4.41205 69.4824,7.07872 69.5,10.5C 72.0673,10.7215 74.4006,11.3882 76.5,12.5C 74.4687,14.5224 72.1354,16.1891 69.5,17.5C 66.1286,20.0994 62.2953,21.7661 58,22.5C 53.8009,22.6129 50.6342,20.9463 48.5,17.5C 49.5846,15.4131 51.2512,14.0798 53.5,13.5C 57.7939,17.4058 61.1273,16.4058 63.5,10.5C 62.8201,9.14011 62.1534,7.80678 61.5,6.5C 63.1392,5.5275 64.4726,4.19416 65.5,2.5 Z"/></g>
<g><path style="opacity:0.868" fill="#3090d0" d="M 76.5,12.5 C 82.1198,13.566 87.4532,15.2327 92.5,17.5C 89.5505,19.1153 86.8838,21.1153 84.5,23.5C 79.2647,21.871 74.2647,19.871 69.5,17.5C 72.1354,16.1891 74.4687,14.5224 76.5,12.5 Z"/></g>
<g><path style="opacity:0.99" fill="#2fa6df" d="M 284.5,47.5 C 287.833,50.1667 290.833,53.1667 293.5,56.5C 290.046,57.3623 286.712,58.529 283.5,60C 293.881,72.5793 302.381,86.4127 309,101.5C 311.703,98.6286 314.536,95.9619 317.5,93.5C 319.362,97.7501 321.028,102.083 322.5,106.5C 319.5,110.167 316.167,113.5 312.5,116.5C 291.134,56.7838 248.801,23.2838 185.5,16C 166.334,14.9047 147.668,17.4047 129.5,23.5C 127.255,23.4588 126.588,22.6255 127.5,21C 181.146,3.53005 229.48,12.8634 272.5,49C 276.501,48.8382 280.501,48.3382 284.5,47.5 Z"/></g>
<g><path style="opacity:0.995" fill="#2fabe3" d="M 312.5,116.5 C 310.833,118.833 308.833,120.833 306.5,122.5C 293.595,76.4265 264.595,45.2598 219.5,29C 200.271,22.908 180.604,20.908 160.5,23C 152.156,23.8986 144.156,25.7319 136.5,28.5C 133.953,27.0664 131.619,25.3998 129.5,23.5C 147.668,17.4047 166.334,14.9047 185.5,16C 248.801,23.2838 291.134,56.7838 312.5,116.5 Z"/></g>
<g><path style="opacity:0.9" fill="#2f9dd9" d="M 92.5,17.5 C 98.5621,19.2985 104.562,21.2985 110.5,23.5C 107.322,26.2583 103.655,28.2583 99.5,29.5C 94.3829,27.7741 89.3829,25.7741 84.5,23.5C 86.8838,21.1153 89.5505,19.1153 92.5,17.5 Z"/></g>
<g><path style="opacity:1" fill="#a0daf3" d="M 195.5,27.5 C 207.513,30.8396 218.513,36.3396 228.5,44C 232.77,47.7615 236.437,51.9281 239.5,56.5C 222.706,46.046 204.373,40.046 184.5,38.5C 181.359,37.6787 178.025,37.1787 174.5,37C 172.399,34.2305 169.732,32.2305 166.5,31C 167.167,30.6667 167.833,30.3333 168.5,30C 166.569,29.0978 164.903,27.9312 163.5,26.5C 174.185,25.0761 184.852,25.4094 195.5,27.5 Z"/></g>
<g><path style="opacity:0.905" fill="#2fa9e2" d="M 110.5,23.5 C 116.086,26.0287 121.753,28.362 127.5,30.5C 123.565,32.4673 119.565,34.4673 115.5,36.5C 109.875,34.684 104.541,32.3507 99.5,29.5C 103.655,28.2583 107.322,26.2583 110.5,23.5 Z"/></g>
<g><path style="opacity:1" fill="#96d6f2" d="M 163.5,26.5 C 164.903,27.9312 166.569,29.0978 168.5,30C 167.833,30.3333 167.167,30.6667 166.5,31C 169.732,32.2305 172.399,34.2305 174.5,37C 178.025,37.1787 181.359,37.6787 184.5,38.5C 174.482,38.41 164.482,38.7433 154.5,39.5C 150.628,37.4026 146.961,35.0692 143.5,32.5C 149.9,29.6197 156.567,27.6197 163.5,26.5 Z"/></g>
<g><path style="opacity:1" fill="#58beeb" d="M 195.5,27.5 C 223.877,31.0216 247.877,43.0216 267.5,63.5C 265.088,66.0917 262.422,69.0917 259.5,72.5C 253.869,67.0235 247.869,62.0235 241.5,57.5C 240.833,57.1667 240.167,56.8333 239.5,56.5C 236.437,51.9281 232.77,47.7615 228.5,44C 218.513,36.3396 207.513,30.8396 195.5,27.5 Z"/></g>
<g><path style="opacity:0.92" fill="#36b1e6" d="M 127.5,30.5 C 131.083,31.7968 134.416,33.4634 137.5,35.5C 134.129,37.8458 130.796,40.1792 127.5,42.5C 123.182,41.0078 119.182,39.0078 115.5,36.5C 119.565,34.4673 123.565,32.4673 127.5,30.5 Z"/></g>
<g><path style="opacity:0.999" fill="#93d5f1" d="M 137.5,35.5 C 141.787,36.6483 145.787,38.315 149.5,40.5C 144.383,42.537 139.05,44.2036 133.5,45.5C 131.181,45.0075 129.181,44.0075 127.5,42.5C 130.796,40.1792 134.129,37.8458 137.5,35.5 Z"/></g>
<g><path style="opacity:1" fill="#8dc7e9" d="M 184.5,38.5 C 204.373,40.046 222.706,46.046 239.5,56.5C 240.167,56.8333 240.833,57.1667 241.5,57.5C 241.557,58.609 241.89,59.609 242.5,60.5C 241.399,61.5983 240.066,61.765 238.5,61C 233.765,58.4163 228.932,56.9163 224,56.5C 213.097,52.9564 202.097,49.6231 191,46.5C 189.452,47.684 187.952,47.5173 186.5,46C 179.174,45.5003 171.841,45.3337 164.5,45.5C 163.833,45.5 163.167,45.5 162.5,45.5C 162.158,44.6618 161.492,44.3284 160.5,44.5C 158.5,42.8333 156.5,41.1667 154.5,39.5C 164.482,38.7433 174.482,38.41 184.5,38.5 Z"/></g>
<g><path style="opacity:0.934" fill="#3088cb" d="M 318.5,42.5 C 320.5,45.5 322.5,48.5 324.5,51.5C 319.405,51.7615 314.405,52.4282 309.5,53.5C 307.213,49.8781 304.547,46.5448 301.5,43.5C 307.145,42.8658 312.811,42.5324 318.5,42.5 Z"/></g>
<g><path style="opacity:0.918" fill="#307bc1" d="M 318.5,42.5 C 324.559,42.2539 330.559,42.5872 336.5,43.5C 338.754,47.0066 340.754,50.6733 342.5,54.5C 336.72,52.4255 330.72,51.4255 324.5,51.5C 322.5,48.5 320.5,45.5 318.5,42.5 Z"/></g>
<g><path style="opacity:0.882" fill="#3073bc" d="M 336.5,43.5 C 354.724,48.0227 358.891,58.356 349,74.5C 352.323,65.9713 350.157,59.3046 342.5,54.5C 340.754,50.6733 338.754,47.0066 336.5,43.5 Z"/></g>
<g><path style="opacity:0.853" fill="#229837" d="M 8.5,67.5 C 6.81948,70.9072 5.15281,74.2406 3.5,77.5C 1.88642,74.6077 0.553086,71.6077 -0.5,68.5C -0.5,63.8333 -0.5,59.1667 -0.5,54.5C 4.82866,46.9922 12.162,43.8255 21.5,45C 16.6637,46.3368 12.497,48.8368 9,52.5C 7.29986,57.4117 7.13319,62.4117 8.5,67.5 Z"/></g>
<g><path style="opacity:1" fill="#83c7ea" d="M 149.5,40.5 C 153.069,42.1185 156.736,43.4519 160.5,44.5C 160.842,45.3382 161.508,45.6716 162.5,45.5C 163.167,46.8333 163.833,46.8333 164.5,45.5C 171.841,45.3337 179.174,45.5003 186.5,46C 187.952,47.5173 189.452,47.684 191,46.5C 202.097,49.6231 213.097,52.9564 224,56.5C 228.932,56.9163 233.765,58.4163 238.5,61C 240.066,61.765 241.399,61.5983 242.5,60.5C 245.194,63.8763 247.527,67.543 249.5,71.5C 249.44,72.0431 249.107,72.3764 248.5,72.5C 241.227,69.9142 233.893,67.5809 226.5,65.5C 223.5,65.5 220.5,65.5 217.5,65.5C 210.296,61.9326 202.629,59.4326 194.5,58C 195.167,57.6667 195.833,57.3333 196.5,57C 181.583,54.8359 166.583,54.0026 151.5,54.5C 145.182,52.0078 139.182,49.0078 133.5,45.5C 139.05,44.2036 144.383,42.537 149.5,40.5 Z"/></g>
<g><path style="opacity:0.914" fill="#2f96d5" d="M 301.5,43.5 C 304.547,46.5448 307.213,49.8781 309.5,53.5C 304.111,54.2445 298.778,55.2445 293.5,56.5C 290.833,53.1667 287.833,50.1667 284.5,47.5C 289.98,45.857 295.647,44.5237 301.5,43.5 Z"/></g>
<g><path style="opacity:0.988" fill="#35b1e6" d="M 306.5,122.5 C 304.12,125.881 301.12,128.547 297.5,130.5C 294.168,116.336 288.502,103.169 280.5,91C 281.126,90.2496 281.626,89.4162 282,88.5C 283.073,89.2797 284.24,89.113 285.5,88C 281.899,78.4942 275.899,70.3275 267.5,63.5C 247.877,43.0216 223.877,31.0216 195.5,27.5C 184.852,25.4094 174.185,25.0761 163.5,26.5C 156.567,27.6197 149.9,29.6197 143.5,32.5C 141.167,31.1667 138.833,29.8333 136.5,28.5C 144.156,25.7319 152.156,23.8986 160.5,23C 180.604,20.908 200.271,22.908 219.5,29C 264.595,45.2598 293.595,76.4265 306.5,122.5 Z"/></g>
<g><path style="opacity:0.87" fill="#349f32" d="M 33.5,48.5 C 31.5,51.8333 29.5,55.1667 27.5,58.5C 20.2315,59.2653 16.7315,63.2653 17,70.5C 13.1197,65.1259 12.6197,59.4593 15.5,53.5C 20.7372,49.3555 26.7372,47.6889 33.5,48.5 Z"/></g>
<g><path style="opacity:0.925" fill="#4ea92b" d="M 33.5,48.5 C 40.1908,48.4542 46.8574,48.7875 53.5,49.5C 50.917,52.9974 48.5836,56.6641 46.5,60.5C 40.2098,59.4587 33.8765,58.792 27.5,58.5C 29.5,55.1667 31.5,51.8333 33.5,48.5 Z"/></g>
<g><path style="opacity:0.911" fill="#63b224" d="M 53.5,49.5 C 58.0851,50.7507 62.7517,51.7507 67.5,52.5C 64.4152,56.2458 61.7485,60.2458 59.5,64.5C 55.0204,63.3023 50.6871,61.969 46.5,60.5C 48.5836,56.6641 50.917,52.9974 53.5,49.5 Z"/></g>
<g><path style="opacity:0.854" fill="#71b721" d="M 67.5,52.5 C 70.6324,53.36 73.6324,54.36 76.5,55.5C 45.0979,91.7495 33.2646,133.749 41,181.5C 46.2184,207.595 57.0517,230.928 73.5,251.5C 40.706,215.687 28.706,173.687 37.5,125.5C 37.3333,124.5 37.1667,123.5 37,122.5C 33.3527,119.175 30.186,115.508 27.5,111.5C 28.2616,107.215 29.5949,103.215 31.5,99.5C 33.9619,102.464 36.6286,105.297 39.5,108C 40.635,108.749 41.635,108.583 42.5,107.5C 48.0084,92.8143 55.3417,79.1477 64.5,66.5C 62.9783,65.438 61.3117,64.7713 59.5,64.5C 61.7485,60.2458 64.4152,56.2458 67.5,52.5 Z"/></g>
<g><path style="opacity:0.994" fill="#79ba1e" d="M 76.5,55.5 C 77.9587,55.4326 79.2921,55.7659 80.5,56.5C 41.0896,103.633 32.5896,155.966 55,213.5C 62.9159,230.688 73.7492,245.688 87.5,258.5C 87.6621,260.527 87.4955,262.527 87,264.5C 81.9974,260.664 77.4974,256.33 73.5,251.5C 57.0517,230.928 46.2184,207.595 41,181.5C 33.2646,133.749 45.0979,91.7495 76.5,55.5 Z"/></g>
<g><path style="opacity:0.995" fill="#81bd1d" d="M 80.5,56.5 C 83.7846,56.9281 86.7846,57.9281 89.5,59.5C 83.7954,65.2026 78.4621,71.2026 73.5,77.5C 70.6869,80.4459 68.3535,83.7792 66.5,87.5C 63.3084,92.5499 60.6417,97.8832 58.5,103.5C 49.1604,124.546 45.9937,146.546 49,169.5C 50.2053,178.318 52.0386,186.985 54.5,195.5C 56.7957,201.41 59.4624,207.077 62.5,212.5C 66.3456,220.676 71.0122,228.343 76.5,235.5C 79.8333,239.5 83.5,243.167 87.5,246.5C 87.5,250.5 87.5,254.5 87.5,258.5C 73.7492,245.688 62.9159,230.688 55,213.5C 32.5896,155.966 41.0896,103.633 80.5,56.5 Z"/></g>
<g><path style="opacity:0.869" fill="#307fc4" d="M 341.5,80.5 C 340.26,76.3494 338.26,72.6827 335.5,69.5C 336.668,63.5071 334.335,59.6737 328.5,58C 341.467,56.9657 346.634,62.799 344,75.5C 343.626,77.4913 342.793,79.158 341.5,80.5 Z"/></g>
<g><path style="opacity:0.98" fill="#95c51c" d="M 89.5,59.5 C 94.7841,60.5946 99.7841,62.2613 104.5,64.5C 95.1879,70.4788 87.5212,78.1454 81.5,87.5C 78.2484,92.3343 75.2484,97.3343 72.5,102.5C 71.9569,102.44 71.6236,102.107 71.5,101.5C 72.7388,94.2129 73.7388,86.8796 74.5,79.5C 74.4573,78.5836 74.1239,77.9169 73.5,77.5C 78.4621,71.2026 83.7954,65.2026 89.5,59.5 Z"/></g>
<g><path style="opacity:0.999" fill="#82ceef" d="M 151.5,54.5 C 166.583,54.0026 181.583,54.8359 196.5,57C 195.833,57.3333 195.167,57.6667 194.5,58C 202.629,59.4326 210.296,61.9326 217.5,65.5C 214.15,65.335 210.817,65.5017 207.5,66C 209.5,67 211.5,68 213.5,69C 214.833,69.6667 214.833,70.3333 213.5,71C 216.173,72.0014 218.507,73.5014 220.5,75.5C 228.071,83.716 233.737,92.716 237.5,102.5C 208.869,86.5157 180.202,70.5157 151.5,54.5 Z"/></g>
<g><path style="opacity:1" fill="#74b820" d="M 104.5,64.5 C 105.609,64.5569 106.609,64.8902 107.5,65.5C 104.167,69.8333 100.833,74.1667 97.5,78.5C 93.7115,82.6294 90.7115,87.296 88.5,92.5C 87.6236,92.3691 86.9569,92.7025 86.5,93.5C 85.0304,96.3081 84.1971,99.3081 84,102.5C 83.3028,104.584 82.1361,106.251 80.5,107.5C 81.0916,104.873 81.4249,102.206 81.5,99.5C 82.4048,95.3325 82.4048,91.3325 81.5,87.5C 87.5212,78.1454 95.1879,70.4788 104.5,64.5 Z"/></g>
<g><path style="opacity:0.997" fill="#78caee" d="M 217.5,65.5 C 220.5,65.5 223.5,65.5 226.5,65.5C 231.643,71.0614 236.809,76.7281 242,82.5C 243.713,87.4183 245.547,92.2516 247.5,97C 247.257,97.9021 246.923,98.7354 246.5,99.5C 243.426,100.302 240.426,101.302 237.5,102.5C 233.737,92.716 228.071,83.716 220.5,75.5C 218.507,73.5014 216.173,72.0014 213.5,71C 214.833,70.3333 214.833,69.6667 213.5,69C 211.5,68 209.5,67 207.5,66C 210.817,65.5017 214.15,65.335 217.5,65.5 Z"/></g>
<g><path style="opacity:1" fill="#82bd1c" d="M 107.5,65.5 C 113.044,67.1805 118.377,69.3471 123.5,72C 114.079,71.0519 105.412,73.2186 97.5,78.5C 100.833,74.1667 104.167,69.8333 107.5,65.5 Z"/></g>
<g><path style="opacity:0.991" fill="#47b8e8" d="M 267.5,63.5 C 275.899,70.3275 281.899,78.4942 285.5,88C 284.24,89.113 283.073,89.2797 282,88.5C 281.626,89.4162 281.126,90.2496 280.5,91C 288.502,103.169 294.168,116.336 297.5,130.5C 296.089,132.914 294.089,134.581 291.5,135.5C 287.427,111.018 276.76,90.0184 259.5,72.5C 262.422,69.0917 265.088,66.0917 267.5,63.5 Z"/></g>
<g><path style="opacity:1" fill="#31a4dd" d="M 252.5,76.5 C 271.214,92.9229 283.548,113.256 289.5,137.5C 285.148,142.013 280.315,146.013 275,149.5C 277.458,145.228 279.458,140.561 281,135.5C 283.263,116.282 275.096,104.282 256.5,99.5C 256.196,91.647 254.863,83.9803 252.5,76.5 Z"/></g>
<g><path style="opacity:0.905" fill="#308acc" d="M 335.5,69.5 C 338.26,72.6827 340.26,76.3494 341.5,80.5C 339.582,85.3434 336.916,89.6767 333.5,93.5C 331.769,89.705 329.769,86.0383 327.5,82.5C 330.919,78.6686 333.586,74.3353 335.5,69.5 Z"/></g>
<g><path style="opacity:0.907" fill="#3ba230" d="M 8.5,67.5 C 11.5663,73.2957 14.8997,78.9623 18.5,84.5C 17.5589,88.3246 16.2255,91.9913 14.5,95.5C 9.83271,90.1757 6.16604,84.1757 3.5,77.5C 5.15281,74.2406 6.81948,70.9072 8.5,67.5 Z"/></g>
<g><path style="opacity:1" fill="#329cd8" d="M 241.5,57.5 C 247.869,62.0235 253.869,67.0235 259.5,72.5C 276.76,90.0184 287.427,111.018 291.5,135.5C 291.167,136.5 290.5,137.167 289.5,137.5C 283.548,113.256 271.214,92.9229 252.5,76.5C 251.313,74.9275 250.313,73.2608 249.5,71.5C 247.527,67.543 245.194,63.8763 242.5,60.5C 241.89,59.609 241.557,58.609 241.5,57.5 Z"/></g>
<g><path style="opacity:0.991" fill="#f9cd6e" d="M 152.5,84.5 C 148.303,83.9838 145.636,85.6504 144.5,89.5C 142.127,84.2936 138.46,80.1269 133.5,77C 140.26,78.3784 146.593,80.8784 152.5,84.5 Z"/></g>
<g><path style="opacity:1" fill="#70c4eb" d="M 226.5,65.5 C 233.893,67.5809 241.227,69.9142 248.5,72.5C 249.107,72.3764 249.44,72.0431 249.5,71.5C 250.313,73.2608 251.313,74.9275 252.5,76.5C 254.863,83.9803 256.196,91.647 256.5,99.5C 253.269,98.6322 249.935,98.6322 246.5,99.5C 246.923,98.7354 247.257,97.9021 247.5,97C 245.547,92.2516 243.713,87.4183 242,82.5C 236.809,76.7281 231.643,71.0614 226.5,65.5 Z"/></g>
<g><path style="opacity:0.964" fill="#c9d907" d="M 129.5,91.5 C 121.479,98.5372 115.146,106.87 110.5,116.5C 102.611,112.723 99.4445,106.39 101,97.5C 104.79,87.52 111.956,83.6866 122.5,86C 125.595,86.9354 127.929,88.7687 129.5,91.5 Z"/></g>
<g><path style="opacity:0.9" fill="#2f96d5" d="M 327.5,82.5 C 329.769,86.0383 331.769,89.705 333.5,93.5C 330.179,98.1518 326.513,102.485 322.5,106.5C 321.028,102.083 319.362,97.7501 317.5,93.5C 320.833,89.8333 324.167,86.1667 327.5,82.5 Z"/></g>
<g><path style="opacity:0.996" fill="#fad380" d="M 152.5,84.5 C 157.484,86.3255 162.151,88.6589 166.5,91.5C 163.862,92.4916 161.195,93.4916 158.5,94.5C 157.702,94.9569 157.369,95.6236 157.5,96.5C 155.517,96.1568 154.183,96.8235 153.5,98.5C 152.356,96.8998 151.189,95.2331 150,93.5C 149.865,95.9216 150.365,98.2549 151.5,100.5C 149.452,99.6745 147.785,100.341 146.5,102.5C 146.731,98.007 146.064,93.6737 144.5,89.5C 145.636,85.6504 148.303,83.9838 152.5,84.5 Z"/></g>
<g><path style="opacity:0.974" fill="#dbe003" d="M 129.5,91.5 C 135.275,99.7251 134.608,107.558 127.5,115C 121.924,118.634 116.257,119.134 110.5,116.5C 115.146,106.87 121.479,98.5372 129.5,91.5 Z"/></g>
<g><path style="opacity:1" fill="#9dca32" d="M 73.5,77.5 C 74.1239,77.9169 74.4573,78.5836 74.5,79.5C 73.7388,86.8796 72.7388,94.2129 71.5,101.5C 71.6236,102.107 71.9569,102.44 72.5,102.5C 70.8333,106.5 69.1667,110.5 67.5,114.5C 66.6772,116.987 65.6772,119.321 64.5,121.5C 64.8404,110.422 65.8404,99.4217 67.5,88.5C 67.3764,87.8933 67.0431,87.56 66.5,87.5C 68.3535,83.7792 70.6869,80.4459 73.5,77.5 Z"/></g>
<g><path style="opacity:0.86" fill="#54ac29" d="M 18.5,84.5 C 22.4307,89.7701 26.7641,94.7701 31.5,99.5C 29.5949,103.215 28.2616,107.215 27.5,111.5C 22.4159,106.752 18.0826,101.419 14.5,95.5C 16.2255,91.9913 17.5589,88.3246 18.5,84.5 Z"/></g>
<g><path style="opacity:0.993" fill="#fada94" d="M 166.5,91.5 C 175.313,95.0718 183.646,99.4051 191.5,104.5C 186.023,103.298 180.689,103.298 175.5,104.5C 169.588,101.64 163.588,98.9737 157.5,96.5C 157.369,95.6236 157.702,94.9569 158.5,94.5C 161.195,93.4916 163.862,92.4916 166.5,91.5 Z"/></g>
<g><path style="opacity:1" fill="#fada95" d="M 157.5,96.5 C 161.344,98.922 165.01,101.589 168.5,104.5C 163.748,105.193 159.414,106.86 155.5,109.5C 155.249,105.751 154.583,102.085 153.5,98.5C 154.183,96.8235 155.517,96.1568 157.5,96.5 Z"/></g>
<g><path style="opacity:0.997" fill="#fbdd9d" d="M 175.5,104.5 C 180.689,103.298 186.023,103.298 191.5,104.5C 201.77,109.637 211.77,115.303 221.5,121.5C 221.892,129.042 223.225,136.376 225.5,143.5C 225.806,146.385 225.473,149.052 224.5,151.5C 224.167,150.5 223.5,149.833 222.5,149.5C 219.715,145.455 217.715,141.122 216.5,136.5C 216.823,132.774 216.489,129.107 215.5,125.5C 202.15,118.471 188.816,111.471 175.5,104.5 Z"/></g>
<g><path style="opacity:1" fill="#f4af32" d="M 153.5,98.5 C 154.583,102.085 155.249,105.751 155.5,109.5C 155.5,110.833 155.5,112.167 155.5,113.5C 153.771,114.117 152.271,115.117 151,116.5C 150.601,116.272 150.435,115.938 150.5,115.5C 151.329,110.547 151.663,105.547 151.5,100.5C 150.365,98.2549 149.865,95.9216 150,93.5C 151.189,95.2331 152.356,96.8998 153.5,98.5 Z"/></g>
<g><path style="opacity:0.991" fill="#fbdb96" d="M 151.5,100.5 C 151.663,105.547 151.329,110.547 150.5,115.5C 147.173,123.494 141.506,129.16 133.5,132.5C 133.325,130.379 133.659,128.379 134.5,126.5C 137.498,123.333 140.331,120 143,116.5C 145.299,112.104 146.466,107.438 146.5,102.5C 147.785,100.341 149.452,99.6745 151.5,100.5 Z"/></g>
<g><path style="opacity:1" fill="#fbdfa3" d="M 168.5,104.5 C 172.173,106 175.506,108 178.5,110.5C 170.005,110.221 162.338,112.555 155.5,117.5C 155.5,116.167 155.5,114.833 155.5,113.5C 155.5,112.167 155.5,110.833 155.5,109.5C 159.414,106.86 163.748,105.193 168.5,104.5 Z"/></g>
<g><path style="opacity:0.899" fill="#e37424" d="M 356.5,112.5 C 365.292,110.427 370.625,113.927 372.5,123C 371.87,129.773 368.203,133.606 361.5,134.5C 361.167,132.5 360.833,130.5 360.5,128.5C 365.703,126.648 366.703,123.482 363.5,119C 361.861,117.481 360.194,117.314 358.5,118.5C 358.125,116.302 357.458,114.302 356.5,112.5 Z"/></g>
<g><path style="opacity:1" fill="#f7bf45" d="M 157.5,96.5 C 163.588,98.9737 169.588,101.64 175.5,104.5C 188.816,111.471 202.15,118.471 215.5,125.5C 216.489,129.107 216.823,132.774 216.5,136.5C 215.504,136.586 214.671,136.252 214,135.5C 208.196,124.023 199.029,117.023 186.5,114.5C 183.807,113.153 181.14,111.82 178.5,110.5C 175.506,108 172.173,106 168.5,104.5C 165.01,101.589 161.344,98.922 157.5,96.5 Z"/></g>
<g><path style="opacity:0.958" fill="#76caee" d="M 255.5,144.5 C 253.263,133.788 249.263,123.788 243.5,114.5C 257.61,109.551 265.944,114.385 268.5,129C 268.263,137.658 263.929,142.825 255.5,144.5 Z"/></g>
<g><path style="opacity:1" fill="#fce4af" d="M 178.5,110.5 C 181.14,111.82 183.807,113.153 186.5,114.5C 189.167,116.5 191.833,118.5 194.5,120.5C 170.093,112.703 153.76,120.87 145.5,145C 144.848,167.54 155.848,180.707 178.5,184.5C 203.24,180.149 213.907,165.816 210.5,141.5C 212.57,145.3 214.903,148.966 217.5,152.5C 213.366,178.079 198.366,189.412 172.5,186.5C 153.595,181.402 143.595,168.902 142.5,149C 142.93,144.016 143.93,139.182 145.5,134.5C 150.136,129.555 153.469,123.889 155.5,117.5C 162.338,112.555 170.005,110.221 178.5,110.5 Z"/></g>
<g><path style="opacity:0.87" fill="#e78424" d="M 356.5,112.5 C 357.458,114.302 358.125,116.302 358.5,118.5C 355.746,120.053 354.913,122.386 356,125.5C 357.129,127.141 358.629,128.141 360.5,128.5C 360.833,130.5 361.167,132.5 361.5,134.5C 359.409,134.682 357.409,134.348 355.5,133.5C 353.814,134.857 352.148,136.19 350.5,137.5C 349.922,134.72 349.255,132.053 348.5,129.5C 348.172,125.511 348.672,121.511 350,117.5C 351.159,114.507 353.325,112.84 356.5,112.5 Z"/></g>
<g><path style="opacity:1" fill="#fce6b7" d="M 194.5,120.5 C 199.565,123.453 204.399,126.787 209,130.5C 209.42,134.191 209.92,137.858 210.5,141.5C 213.907,165.816 203.24,180.149 178.5,184.5C 155.848,180.707 144.848,167.54 145.5,145C 153.76,120.87 170.093,112.703 194.5,120.5 Z"/></g>
<g><path style="opacity:0.969" fill="#8dd3f1" d="M 243.5,114.5 C 249.263,123.788 253.263,133.788 255.5,144.5C 241.3,145.798 234.8,139.132 236,124.5C 237.294,120.238 239.794,116.905 243.5,114.5 Z"/></g>
<g><path style="opacity:0.905" fill="#3393e2" d="M 842.5,117.5 C 860.027,115.261 872.694,121.927 880.5,137.5C 875.869,138.662 871.202,138.828 866.5,138C 858.039,126.908 847.706,124.908 835.5,132C 823.5,145.333 823.5,158.667 835.5,172C 847.761,179.347 858.094,177.347 866.5,166C 871.202,165.172 875.869,165.338 880.5,166.5C 872.706,182.232 860.039,188.732 842.5,186C 822.403,180.553 813.236,167.386 815,146.5C 817.896,130.773 827.062,121.107 842.5,117.5 Z"/></g>
<g><path style="opacity:0.902" fill="#3393e2" d="M 419.5,118.5 C 435.5,118.5 451.5,118.5 467.5,118.5C 467.5,121.833 467.5,125.167 467.5,128.5C 461.5,128.5 455.5,128.5 449.5,128.5C 449.5,147.5 449.5,166.5 449.5,185.5C 445.5,185.5 441.5,185.5 437.5,185.5C 437.5,166.5 437.5,147.5 437.5,128.5C 431.5,128.5 425.5,128.5 419.5,128.5C 419.5,125.167 419.5,121.833 419.5,118.5 Z"/></g>
<g><path style="opacity:0.92" fill="#3393e2" d="M 478.5,118.5 C 488.506,118.334 498.506,118.5 508.5,119C 523.192,123.211 528.358,132.711 524,147.5C 521.614,153.104 517.447,156.437 511.5,157.5C 515.696,166.886 520.696,175.886 526.5,184.5C 521.615,185.802 516.782,185.802 512,184.5C 507.3,176.628 502.8,168.628 498.5,160.5C 495.914,159.52 493.247,159.187 490.5,159.5C 490.5,168.167 490.5,176.833 490.5,185.5C 486.5,185.5 482.5,185.5 478.5,185.5C 478.5,163.167 478.5,140.833 478.5,118.5 Z M 490.5,128.5 C 496.176,128.334 501.843,128.501 507.5,129C 514.062,133.599 515.229,139.432 511,146.5C 509.581,147.46 508.081,148.293 506.5,149C 501.177,149.499 495.844,149.666 490.5,149.5C 490.5,142.5 490.5,135.5 490.5,128.5 Z"/></g>
<g><path style="opacity:0.913" fill="#3393e2" d="M 538.5,118.5 C 542.5,118.5 546.5,118.5 550.5,118.5C 550.5,140.833 550.5,163.167 550.5,185.5C 546.5,185.5 542.5,185.5 538.5,185.5C 538.5,163.167 538.5,140.833 538.5,118.5 Z"/></g>
<g><path style="opacity:0.925" fill="#3393e2" d="M 564.5,118.5 C 575.896,118.091 587.23,118.591 598.5,120C 611.474,126.246 614.974,136.079 609,149.5C 605.908,153.928 601.741,156.761 596.5,158C 589.842,158.5 583.175,158.666 576.5,158.5C 576.5,167.5 576.5,176.5 576.5,185.5C 572.5,185.5 568.5,185.5 564.5,185.5C 564.5,163.167 564.5,140.833 564.5,118.5 Z M 576.5,128.5 C 582.176,128.334 587.843,128.501 593.5,129C 599.542,132.748 601.042,137.915 598,144.5C 596.786,146.049 595.286,147.215 593.5,148C 587.912,149.289 582.245,149.789 576.5,149.5C 576.5,142.5 576.5,135.5 576.5,128.5 Z"/></g>
<g><path style="opacity:0.928" fill="#3393e2" d="M 621.5,118.5 C 625.5,118.5 629.5,118.5 633.5,118.5C 633.5,137.833 633.5,157.167 633.5,176.5C 640.833,176.5 648.167,176.5 655.5,176.5C 655.5,179.5 655.5,182.5 655.5,185.5C 644.167,185.5 632.833,185.5 621.5,185.5C 621.5,163.167 621.5,140.833 621.5,118.5 Z"/></g>
<g><path style="opacity:0.942" fill="#3393e2" d="M 663.5,118.5 C 675.833,118.5 688.167,118.5 700.5,118.5C 700.5,121.5 700.5,124.5 700.5,127.5C 692.167,127.5 683.833,127.5 675.5,127.5C 675.5,133.833 675.5,140.167 675.5,146.5C 683.167,146.5 690.833,146.5 698.5,146.5C 698.5,149.833 698.5,153.167 698.5,156.5C 690.833,156.5 683.167,156.5 675.5,156.5C 675.5,163.167 675.5,169.833 675.5,176.5C 683.833,176.5 692.167,176.5 700.5,176.5C 700.5,179.5 700.5,182.5 700.5,185.5C 688.167,185.5 675.833,185.5 663.5,185.5C 663.5,163.167 663.5,140.833 663.5,118.5 Z"/></g>
<g><path style="opacity:0.902" fill="#3393e2" d="M 710.5,118.5 C 726.5,118.5 742.5,118.5 758.5,118.5C 758.5,121.833 758.5,125.167 758.5,128.5C 752.5,128.5 746.5,128.5 740.5,128.5C 740.5,147.5 740.5,166.5 740.5,185.5C 736.5,185.5 732.5,185.5 728.5,185.5C 728.5,166.5 728.5,147.5 728.5,128.5C 722.5,128.5 716.5,128.5 710.5,128.5C 710.5,125.167 710.5,121.833 710.5,118.5 Z"/></g>
<g><path style="opacity:0.942" fill="#3393e2" d="M 768.5,118.5 C 780.833,118.5 793.167,118.5 805.5,118.5C 805.5,121.5 805.5,124.5 805.5,127.5C 797.167,127.5 788.833,127.5 780.5,127.5C 780.5,133.833 780.5,140.167 780.5,146.5C 788.167,146.5 795.833,146.5 803.5,146.5C 803.5,149.833 803.5,153.167 803.5,156.5C 795.833,156.5 788.167,156.5 780.5,156.5C 780.5,163.167 780.5,169.833 780.5,176.5C 788.833,176.5 797.167,176.5 805.5,176.5C 805.5,179.5 805.5,182.5 805.5,185.5C 793.167,185.5 780.833,185.5 768.5,185.5C 768.5,163.167 768.5,140.833 768.5,118.5 Z"/></g>
<g><path style="opacity:0.925" fill="#3393e2" d="M 892.5,118.5 C 896.5,118.5 900.5,118.5 904.5,118.5C 904.5,128.167 904.5,137.833 904.5,147.5C 914.5,147.5 924.5,147.5 934.5,147.5C 934.5,137.833 934.5,128.167 934.5,118.5C 938.5,118.5 942.5,118.5 946.5,118.5C 946.5,140.833 946.5,163.167 946.5,185.5C 942.5,185.5 938.5,185.5 934.5,185.5C 934.5,175.833 934.5,166.167 934.5,156.5C 924.5,156.5 914.5,156.5 904.5,156.5C 904.5,166.167 904.5,175.833 904.5,185.5C 900.5,185.5 896.5,185.5 892.5,185.5C 892.5,163.167 892.5,140.833 892.5,118.5 Z"/></g>
<g><path style="opacity:1" fill="#f8c34f" d="M 155.5,113.5 C 155.5,114.833 155.5,116.167 155.5,117.5C 153.469,123.889 150.136,129.555 145.5,134.5C 143.695,135.237 142.029,136.237 140.5,137.5C 138.934,145.084 138.268,152.75 138.5,160.5C 137.512,165.64 137.179,170.974 137.5,176.5C 137.334,182.842 137.5,189.175 138,195.5C 139.264,197.607 141.097,198.607 143.5,198.5C 140.835,201.506 139.002,204.839 138,208.5C 140.114,205.034 142.948,202.367 146.5,200.5C 146.771,202.43 147.771,203.764 149.5,204.5C 145.34,206.42 141.673,209.087 138.5,212.5C 134.332,210.577 130.665,207.91 127.5,204.5C 127.388,197.82 127.054,191.153 126.5,184.5C 128.238,188.266 130.738,191.6 134,194.5C 134.497,192.19 134.663,189.857 134.5,187.5C 135.326,192.316 135.826,197.316 136,202.5C 136.667,194.5 136.667,186.5 136,178.5C 135.667,177.833 135.333,177.167 135,176.5C 134.51,177.793 134.343,179.127 134.5,180.5C 133.532,178.393 133.198,176.059 133.5,173.5C 133.067,159.754 133.067,146.088 133.5,132.5C 141.506,129.16 147.173,123.494 150.5,115.5C 150.435,115.938 150.601,116.272 151,116.5C 152.271,115.117 153.771,114.117 155.5,113.5 Z"/></g>
<g><path style="opacity:1" fill="#96c516" d="M 90.5,116.5 C 91.9744,117.436 92.9744,118.77 93.5,120.5C 93.5394,121.583 93.8728,122.583 94.5,123.5C 90.4199,141.512 90.5866,159.512 95,177.5C 96.5507,182.026 98.5507,186.359 101,190.5C 101.499,195.155 101.666,199.821 101.5,204.5C 84.0571,176.957 80.3904,147.624 90.5,116.5 Z"/></g>
<g><path style="opacity:1" fill="#79bc37" d="M 81.5,87.5 C 82.4048,91.3325 82.4048,95.3325 81.5,99.5C 79.245,100.648 77.4117,102.314 76,104.5C 75.6058,110.884 73.9391,116.884 71,122.5C 70.3333,140.167 70.3333,157.833 71,175.5C 72.3961,178.064 73.5627,180.731 74.5,183.5C 75.0657,189.859 75.7323,196.193 76.5,202.5C 76.8333,206.5 77.1667,210.5 77.5,214.5C 76.8333,214.5 76.5,214.167 76.5,213.5C 73.5602,207.954 70.8935,202.287 68.5,196.5C 69.1239,196.083 69.4573,195.416 69.5,194.5C 68.7574,188.863 68.2574,183.196 68,177.5C 67.5916,156.311 67.425,135.311 67.5,114.5C 69.1667,110.5 70.8333,106.5 72.5,102.5C 75.2484,97.3343 78.2484,92.3343 81.5,87.5 Z"/></g>
<g><path style="opacity:1" fill="#fceac2" d="M 175.5,120.5 C 198.83,121.816 209.664,134.149 208,157.5C 202.594,174.888 190.761,182.721 172.5,181C 154.78,175.729 146.946,163.896 149,145.5C 152.488,131.364 161.322,123.031 175.5,120.5 Z"/></g>
<g><path style="opacity:1" fill="#a3ce4d" d="M 58.5,103.5 C 59.0967,103.735 59.4301,104.235 59.5,105C 58.7462,109.795 58.2462,114.628 58,119.5C 57.0853,120.328 56.4186,121.328 56,122.5C 55.7882,133.194 55.2882,143.86 54.5,154.5C 55.8067,168.313 55.8067,181.98 54.5,195.5C 52.0386,186.985 50.2053,178.318 49,169.5C 45.9937,146.546 49.1604,124.546 58.5,103.5 Z"/></g>
<g><path style="opacity:1" fill="#a3cd41" d="M 66.5,87.5 C 67.0431,87.56 67.3764,87.8933 67.5,88.5C 65.8404,99.4217 64.8404,110.422 64.5,121.5C 58.9659,143.939 59.2992,166.272 65.5,188.5C 65.0259,195.327 64.8593,202.327 65,209.5C 64.3333,208.833 63.6667,208.167 63,207.5C 62.5065,209.134 62.3398,210.801 62.5,212.5C 59.4624,207.077 56.7957,201.41 54.5,195.5C 55.8067,181.98 55.8067,168.313 54.5,154.5C 55.2882,143.86 55.7882,133.194 56,122.5C 56.4186,121.328 57.0853,120.328 58,119.5C 58.2462,114.628 58.7462,109.795 59.5,105C 59.4301,104.235 59.0967,103.735 58.5,103.5C 60.6417,97.8832 63.3084,92.5499 66.5,87.5 Z"/></g>
<g><path style="opacity:1" fill="#a5cb12" d="M 93.5,120.5 C 97.7617,123.4 100.762,127.067 102.5,131.5C 101.368,157.16 101.368,182.826 102.5,208.5C 101.566,207.432 101.232,206.099 101.5,204.5C 101.666,199.821 101.499,195.155 101,190.5C 98.5507,186.359 96.5507,182.026 95,177.5C 90.5866,159.512 90.4199,141.512 94.5,123.5C 93.8728,122.583 93.5394,121.583 93.5,120.5 Z"/></g>
<g><path style="opacity:1" fill="#fad88d" d="M 134.5,126.5 C 133.659,128.379 133.325,130.379 133.5,132.5C 133.067,146.088 133.067,159.754 133.5,173.5C 131.184,172.194 128.85,170.861 126.5,169.5C 124.942,156.125 125.276,142.791 127.5,129.5C 129.739,128.212 132.072,127.212 134.5,126.5 Z"/></g>
<g><path style="opacity:1" fill="#f8c452" d="M 186.5,114.5 C 199.029,117.023 208.196,124.023 214,135.5C 214.671,136.252 215.504,136.586 216.5,136.5C 217.715,141.122 219.715,145.455 222.5,149.5C 221.539,151.265 221.205,153.265 221.5,155.5C 220.167,154.5 218.833,153.5 217.5,152.5C 214.903,148.966 212.57,145.3 210.5,141.5C 209.92,137.858 209.42,134.191 209,130.5C 204.399,126.787 199.565,123.453 194.5,120.5C 191.833,118.5 189.167,116.5 186.5,114.5 Z"/></g>
<g><path style="opacity:1" fill="#81be2f" d="M 81.5,99.5 C 81.4249,102.206 81.0916,104.873 80.5,107.5C 77.63,121.29 75.9633,135.29 75.5,149.5C 75.9072,163.031 77.5739,176.364 80.5,189.5C 79.05,187.005 77.05,185.005 74.5,183.5C 73.5627,180.731 72.3961,178.064 71,175.5C 70.3333,157.833 70.3333,140.167 71,122.5C 73.9391,116.884 75.6058,110.884 76,104.5C 77.4117,102.314 79.245,100.648 81.5,99.5 Z"/></g>
<g><path style="opacity:1" fill="#fbe1a9" d="M 145.5,134.5 C 143.93,139.182 142.93,144.016 142.5,149C 143.595,168.902 153.595,181.402 172.5,186.5C 166.09,185.981 159.757,184.981 153.5,183.5C 153.5,182.833 153.167,182.5 152.5,182.5C 145.833,176.488 141.166,169.154 138.5,160.5C 138.268,152.75 138.934,145.084 140.5,137.5C 142.029,136.237 143.695,135.237 145.5,134.5 Z"/></g>
<g><path style="opacity:0.908" fill="#ed9524" d="M 348.5,129.5 C 349.255,132.053 349.922,134.72 350.5,137.5C 346.129,142.873 341.129,147.539 335.5,151.5C 334.521,148.375 334.187,145.042 334.5,141.5C 338.847,137.155 343.514,133.155 348.5,129.5 Z"/></g>
<g><path style="opacity:0.929" fill="#fad688" d="M 225.5,143.5 C 229.539,148.54 234.206,152.873 239.5,156.5C 238.833,157.5 238.167,158.5 237.5,159.5C 232.366,158.101 228.033,155.435 224.5,151.5C 225.473,149.052 225.806,146.385 225.5,143.5 Z"/></g>
<g><path style="opacity:0.886" fill="#f3a825" d="M 334.5,141.5 C 334.187,145.042 334.521,148.375 335.5,151.5C 330.573,156.302 325.24,160.635 319.5,164.5C 319.5,160.5 319.5,156.5 319.5,152.5C 324.214,148.454 329.214,144.788 334.5,141.5 Z"/></g>
<g><path style="opacity:1" fill="#fdedca" d="M 172.5,127.5 C 189.048,125.77 199.381,132.936 203.5,149C 203.333,165.35 195,174.85 178.5,177.5C 158.923,173.958 151.089,162.625 155,143.5C 158.536,135.456 164.369,130.123 172.5,127.5 Z"/></g>
<g><path style="opacity:1" fill="#fdf0d5" d="M 174.5,130.5 C 189.328,130.158 197.994,137.324 200.5,152C 197.373,171.438 186.373,178.104 167.5,172C 153.662,159.561 153.329,146.895 166.5,134C 169.158,132.522 171.825,131.355 174.5,130.5 Z"/></g>
<g><path style="opacity:1" fill="#fdf4df" d="M 175.5,136.5 C 193.106,138.379 198.272,147.379 191,163.5C 182.667,171.5 174.333,171.5 166,163.5C 159.041,150.777 162.207,141.777 175.5,136.5 Z"/></g>
<g><path style="opacity:1" fill="#fef9ee" d="M 174.5,143.5 C 182.977,142.155 187.977,145.655 189.5,154C 187.176,162.701 181.842,165.701 173.5,163C 165.668,156.023 166.002,149.523 174.5,143.5 Z"/></g>
<g><path style="opacity:1" fill="#f6b535" d="M 222.5,149.5 C 223.5,149.833 224.167,150.5 224.5,151.5C 228.033,155.435 232.366,158.101 237.5,159.5C 239.086,160.148 240.753,160.648 242.5,161C 240.19,161.497 237.857,161.663 235.5,161.5C 235.167,161.5 234.833,161.5 234.5,161.5C 230.937,160.718 227.603,159.384 224.5,157.5C 223.5,156.833 222.5,156.167 221.5,155.5C 221.205,153.265 221.539,151.265 222.5,149.5 Z"/></g>
<g><path style="opacity:1" fill="#fbde9d" d="M 217.5,152.5 C 218.833,153.5 220.167,154.5 221.5,155.5C 222.5,156.167 223.5,156.833 224.5,157.5C 224.603,160.219 224.269,162.885 223.5,165.5C 221.738,168.888 220.071,172.221 218.5,175.5C 213.798,178.182 209.131,180.849 204.5,183.5C 196.582,187.043 188.749,190.71 181,194.5C 177.411,192.47 173.578,191.137 169.5,190.5C 163.249,190.377 157.916,188.044 153.5,183.5C 159.757,184.981 166.09,185.981 172.5,186.5C 198.366,189.412 213.366,178.079 217.5,152.5 Z"/></g>
<g><path style="opacity:1" fill="#7cbd44" d="M 67.5,114.5 C 67.425,135.311 67.5916,156.311 68,177.5C 68.2574,183.196 68.7574,188.863 69.5,194.5C 69.4573,195.416 69.1239,196.083 68.5,196.5C 67.5,193.833 66.5,191.167 65.5,188.5C 59.2992,166.272 58.9659,143.939 64.5,121.5C 65.6772,119.321 66.6772,116.987 67.5,114.5 Z"/></g>
<g><path style="opacity:1" fill="#fad78c" d="M 224.5,157.5 C 227.603,159.384 230.937,160.718 234.5,161.5C 230.736,166.198 226.403,170.198 221.5,173.5C 220.71,174.401 219.71,175.068 218.5,175.5C 220.071,172.221 221.738,168.888 223.5,165.5C 224.269,162.885 224.603,160.219 224.5,157.5 Z"/></g>
<g><path style="opacity:0.843" fill="#f7ba37" d="M 243.5,172.5 C 244.296,167.853 244.963,163.186 245.5,158.5C 252.305,159.147 258.805,158.147 265,155.5C 265.167,155.833 265.333,156.167 265.5,156.5C 258.452,162.213 251.119,167.546 243.5,172.5 Z"/></g>
<g><path style="opacity:0.908" fill="#f6b62b" d="M 319.5,152.5 C 319.5,156.5 319.5,160.5 319.5,164.5C 314.722,168.729 309.722,172.729 304.5,176.5C 304.919,172.227 304.252,168.227 302.5,164.5C 307.954,160.267 313.62,156.267 319.5,152.5 Z"/></g>
<g><path style="opacity:0.949" fill="#f8c454" d="M 239.5,156.5 C 241.786,156.595 243.786,157.262 245.5,158.5C 244.963,163.186 244.296,167.853 243.5,172.5C 240.411,174.925 237.078,176.925 233.5,178.5C 235.233,174.696 236.233,171.029 236.5,167.5C 236.5,166.833 236.167,166.5 235.5,166.5C 235.5,164.833 235.5,163.167 235.5,161.5C 237.857,161.663 240.19,161.497 242.5,161C 240.753,160.648 239.086,160.148 237.5,159.5C 238.167,158.5 238.833,157.5 239.5,156.5 Z"/></g>
<g><path style="opacity:1" fill="#f9cd6d" d="M 234.5,161.5 C 234.833,161.5 235.167,161.5 235.5,161.5C 235.5,163.167 235.5,164.833 235.5,166.5C 230.817,168.863 226.15,171.196 221.5,173.5C 226.403,170.198 230.736,166.198 234.5,161.5 Z"/></g>
<g><path style="opacity:1" fill="#89c01b" d="M 87.5,95.5 C 86.928,102.759 87.928,109.759 90.5,116.5C 80.3904,147.624 84.0571,176.957 101.5,204.5C 101.232,206.099 101.566,207.432 102.5,208.5C 102.5,210.833 102.5,213.167 102.5,215.5C 91.9608,203.755 85.1275,190.088 82,174.5C 80.6305,161.524 80.2972,148.524 81,135.5C 82.9291,121.962 85.0958,108.629 87.5,95.5 Z"/></g>
<g><path style="opacity:1" fill="#fbdc9a" d="M 138.5,160.5 C 141.166,169.154 145.833,176.488 152.5,182.5C 147.84,181.669 143.506,180.003 139.5,177.5C 138.833,177.167 138.167,176.833 137.5,176.5C 137.179,170.974 137.512,165.64 138.5,160.5 Z"/></g>
<g><path style="opacity:0.891" fill="#f9cd6d" d="M 236.5,167.5 C 236.233,171.029 235.233,174.696 233.5,178.5C 226.513,183.663 219.18,188.33 211.5,192.5C 216.679,187.996 220.679,182.663 223.5,176.5C 227.535,173.143 231.868,170.143 236.5,167.5 Z"/></g>
<g><path style="opacity:0.937" fill="#fad077" d="M 223.5,176.5 C 220.679,182.663 216.679,187.996 211.5,192.5C 202.029,198.941 192.029,204.608 181.5,209.5C 171.673,202.455 161.007,200.789 149.5,204.5C 147.771,203.764 146.771,202.43 146.5,200.5C 148.713,199.227 151.046,198.227 153.5,197.5C 163.401,195.247 172.568,196.914 181,202.5C 182.585,201.956 184.085,201.289 185.5,200.5C 199.241,199.274 210.241,192.774 218.5,181C 218.272,180.601 217.938,180.435 217.5,180.5C 219.118,178.684 221.118,177.351 223.5,176.5 Z"/></g>
<g><path style="opacity:0.903" fill="#f7c048" d="M 302.5,164.5 C 304.252,168.227 304.919,172.227 304.5,176.5C 299.485,180.67 294.152,184.337 288.5,187.5C 290.008,182.289 291.008,176.956 291.5,171.5C 294.997,168.917 298.664,166.584 302.5,164.5 Z"/></g>
<g><path style="opacity:0.874" fill="#f6b325" d="M 217.5,294.5 C 213.5,295.167 209.5,295.833 205.5,296.5C 205.5,295.5 205.5,294.5 205.5,293.5C 189.343,296.816 173.176,297.149 157,294.5C 156.517,295.448 156.351,296.448 156.5,297.5C 151.833,296.5 147.167,295.5 142.5,294.5C 141.232,292.095 140.565,289.428 140.5,286.5C 196.117,300.806 243.284,286.806 282,244.5C 297.2,225.762 306.7,204.428 310.5,180.5C 312.151,179.03 313.985,177.697 316,176.5C 309.398,219.755 287.565,252.922 250.5,276C 240.425,281.967 229.758,286.467 218.5,289.5C 218.634,291.292 218.301,292.958 217.5,294.5 Z"/></g>
<g><path style="opacity:1" fill="#f5b32f" d="M 134.5,187.5 C 134.5,185.167 134.5,182.833 134.5,180.5C 134.343,179.127 134.51,177.793 135,176.5C 135.333,177.167 135.667,177.833 136,178.5C 136.667,186.5 136.667,194.5 136,202.5C 135.826,197.316 135.326,192.316 134.5,187.5 Z"/></g>
<g><path style="opacity:1" fill="#f0a32d" d="M 291.5,171.5 C 291.008,176.956 290.008,182.289 288.5,187.5C 288.5,188.167 288.167,188.5 287.5,188.5C 286.417,188.461 285.417,188.127 284.5,187.5C 283.06,188.952 281.394,189.952 279.5,190.5C 280.671,187.408 280.671,184.574 279.5,182C 279.978,180.697 280.645,179.531 281.5,178.5C 284.796,176.179 288.129,173.846 291.5,171.5 Z"/></g>
<g><path style="opacity:0.953" fill="#f9cb66" d="M 126.5,169.5 C 128.85,170.861 131.184,172.194 133.5,173.5C 133.198,176.059 133.532,178.393 134.5,180.5C 134.5,182.833 134.5,185.167 134.5,187.5C 134.663,189.857 134.497,192.19 134,194.5C 130.738,191.6 128.238,188.266 126.5,184.5C 126.5,179.5 126.5,174.5 126.5,169.5 Z"/></g>
<g><path style="opacity:1" fill="#f9d076" d="M 137.5,176.5 C 138.167,176.833 138.833,177.167 139.5,177.5C 142.595,184.263 147.595,188.93 154.5,191.5C 153.167,192.5 151.833,193.5 150.5,194.5C 148.031,195.569 145.698,196.902 143.5,198.5C 141.097,198.607 139.264,197.607 138,195.5C 137.5,189.175 137.334,182.842 137.5,176.5 Z"/></g>
<g><path style="opacity:1" fill="#fad78b" d="M 139.5,177.5 C 143.506,180.003 147.84,181.669 152.5,182.5C 153.167,182.5 153.5,182.833 153.5,183.5C 157.916,188.044 163.249,190.377 169.5,190.5C 165.629,190.185 161.962,190.518 158.5,191.5C 157.167,191.5 155.833,191.5 154.5,191.5C 147.595,188.93 142.595,184.263 139.5,177.5 Z"/></g>
<g><path style="opacity:1" fill="#f8c149" d="M 235.5,166.5 C 236.167,166.5 236.5,166.833 236.5,167.5C 231.868,170.143 227.535,173.143 223.5,176.5C 221.118,177.351 219.118,178.684 217.5,180.5C 206.562,186.779 195.896,193.445 185.5,200.5C 184.085,201.289 182.585,201.956 181,202.5C 172.568,196.914 163.401,195.247 153.5,197.5C 153.5,195.5 152.5,194.5 150.5,194.5C 151.833,193.5 153.167,192.5 154.5,191.5C 155.833,191.5 157.167,191.5 158.5,191.5C 173.832,198.421 188.499,196.921 202.5,187C 203.823,186.184 204.489,185.017 204.5,183.5C 209.131,180.849 213.798,178.182 218.5,175.5C 219.71,175.068 220.71,174.401 221.5,173.5C 226.15,171.196 230.817,168.863 235.5,166.5 Z"/></g>
<g><path style="opacity:0.995" fill="#f7b72d" d="M 310.5,180.5 C 306.7,204.428 297.2,225.762 282,244.5C 243.284,286.806 196.117,300.806 140.5,286.5C 139.388,284.401 138.721,282.067 138.5,279.5C 185.317,292.838 227.317,284.005 264.5,253C 284.483,233.827 297.483,210.66 303.5,183.5C 305.713,182.227 308.046,181.227 310.5,180.5 Z"/></g>
<g><path style="opacity:1" fill="#f9c659" d="M 204.5,183.5 C 204.489,185.017 203.823,186.184 202.5,187C 188.499,196.921 173.832,198.421 158.5,191.5C 161.962,190.518 165.629,190.185 169.5,190.5C 173.578,191.137 177.411,192.47 181,194.5C 188.749,190.71 196.582,187.043 204.5,183.5 Z"/></g>
<g><path style="opacity:1" fill="#fad481" d="M 217.5,180.5 C 217.938,180.435 218.272,180.601 218.5,181C 210.241,192.774 199.241,199.274 185.5,200.5C 195.896,193.445 206.562,186.779 217.5,180.5 Z"/></g>
<g><path style="opacity:0.995" fill="#f7ba36" d="M 303.5,183.5 C 297.483,210.66 284.483,233.827 264.5,253C 227.317,284.005 185.317,292.838 138.5,279.5C 137.454,276.272 136.788,272.939 136.5,269.5C 140.639,271.455 144.972,272.955 149.5,274C 150.688,276.724 152.355,279.057 154.5,281C 158.145,281.719 161.812,282.219 165.5,282.5C 172.982,283.702 180.316,283.702 187.5,282.5C 192.076,282.562 196.409,281.895 200.5,280.5C 204.736,279.992 208.736,278.992 212.5,277.5C 241.873,269.159 265.206,252.493 282.5,227.5C 287.178,221.484 290.845,214.817 293.5,207.5C 296.932,200.208 299.599,192.541 301.5,184.5C 302.167,184.167 302.833,183.833 303.5,183.5 Z"/></g>
<g><path style="opacity:1" fill="#f4b02c" d="M 281.5,178.5 C 280.645,179.531 279.978,180.697 279.5,182C 280.671,184.574 280.671,187.408 279.5,190.5C 277.192,192.471 274.858,194.471 272.5,196.5C 270.302,198.098 267.969,199.431 265.5,200.5C 265.485,196.95 266.318,193.283 268,189.5C 270.2,188.349 271.7,186.682 272.5,184.5C 274.975,181.759 277.975,179.759 281.5,178.5 Z"/></g>
<g><path style="opacity:0.978" fill="#f8c657" d="M 301.5,184.5 C 299.599,192.541 296.932,200.208 293.5,207.5C 291.451,207.294 291.117,206.461 292.5,205C 291.5,204.667 290.5,204.333 289.5,204C 287.967,201.971 286.301,200.138 284.5,198.5C 284.751,196.83 285.418,195.33 286.5,194C 286.272,193.601 285.938,193.435 285.5,193.5C 290.798,190.515 296.132,187.515 301.5,184.5 Z"/></g>
<g><path style="opacity:1" fill="#80bd20" d="M 88.5,92.5 C 88.7373,93.791 88.404,94.791 87.5,95.5C 85.0958,108.629 82.9291,121.962 81,135.5C 80.2972,148.524 80.6305,161.524 82,174.5C 85.1275,190.088 91.9608,203.755 102.5,215.5C 103.134,221.145 103.468,226.811 103.5,232.5C 102.691,230.708 102.191,228.708 102,226.5C 97.952,222.12 94.2853,217.454 91,212.5C 90.5065,214.134 90.3398,215.801 90.5,217.5C 89.8333,218.833 89.1667,220.167 88.5,221.5C 88.5,220.5 88.5,219.5 88.5,218.5C 90.0728,210.815 87.9062,204.482 82,199.5C 81.3897,196.173 80.8897,192.839 80.5,189.5C 77.5739,176.364 75.9072,163.031 75.5,149.5C 75.9633,135.29 77.63,121.29 80.5,107.5C 82.1361,106.251 83.3028,104.584 84,102.5C 84.1971,99.3081 85.0304,96.3081 86.5,93.5C 86.9569,92.7025 87.6236,92.3691 88.5,92.5 Z"/></g>
<g><path style="opacity:1" fill="#f7ba38" d="M 272.5,184.5 C 271.7,186.682 270.2,188.349 268,189.5C 266.318,193.283 265.485,196.95 265.5,200.5C 263.361,203.738 261.694,207.238 260.5,211C 251.263,216.901 242.596,223.568 234.5,231C 224.631,236.629 215.465,242.462 207,248.5C 205.691,246.109 204.691,246.109 204,248.5C 202.951,247.483 201.784,247.316 200.5,248C 197.98,249.697 195.647,251.53 193.5,253.5C 189.888,253.255 186.221,253.255 182.5,253.5C 186.219,248.729 188.885,243.396 190.5,237.5C 191.338,237.158 191.672,236.492 191.5,235.5C 205.416,232.446 218.749,228.613 231.5,224C 232.328,223.085 233.328,222.419 234.5,222C 233.833,221.667 233.167,221.333 232.5,221C 234.259,220.02 235.926,219.353 237.5,219C 237.167,218.667 236.833,218.333 236.5,218C 238.126,215.372 240.126,213.039 242.5,211C 242.167,210.667 241.833,210.333 241.5,210C 244.226,206.701 246.559,203.201 248.5,199.5C 256.156,194.003 264.156,189.003 272.5,184.5 Z"/></g>
<g><path style="opacity:1" fill="#f2ab3a" d="M 287.5,188.5 C 285.022,190.803 282.355,192.969 279.5,195C 281.506,194.85 283.506,194.35 285.5,193.5C 285.938,193.435 286.272,193.601 286.5,194C 285.418,195.33 284.751,196.83 284.5,198.5C 283.662,198.842 283.328,199.508 283.5,200.5C 278.522,202.991 273.855,205.991 269.5,209.5C 269.5,208.833 269.5,208.167 269.5,207.5C 270.748,205.701 271.748,203.867 272.5,202C 272.167,201.667 271.833,201.333 271.5,201C 273.066,200.392 274.4,199.558 275.5,198.5C 275.5,197.833 275.167,197.5 274.5,197.5C 273.508,197.672 272.842,197.338 272.5,196.5C 274.858,194.471 277.192,192.471 279.5,190.5C 281.394,189.952 283.06,188.952 284.5,187.5C 285.417,188.127 286.417,188.461 287.5,188.5 Z"/></g>
<g><path style="opacity:1" fill="#f3ac2d" d="M 150.5,194.5 C 152.5,194.5 153.5,195.5 153.5,197.5C 151.046,198.227 148.713,199.227 146.5,200.5C 142.948,202.367 140.114,205.034 138,208.5C 139.002,204.839 140.835,201.506 143.5,198.5C 145.698,196.902 148.031,195.569 150.5,194.5 Z"/></g>
<g><path style="opacity:1" fill="#f8be41" d="M 248.5,199.5 C 246.559,203.201 244.226,206.701 241.5,210C 241.833,210.333 242.167,210.667 242.5,211C 240.126,213.039 238.126,215.372 236.5,218C 236.833,218.333 237.167,218.667 237.5,219C 235.926,219.353 234.259,220.02 232.5,221C 233.167,221.333 233.833,221.667 234.5,222C 233.328,222.419 232.328,223.085 231.5,224C 218.749,228.613 205.416,232.446 191.5,235.5C 191.5,234.5 191.5,233.5 191.5,232.5C 212.2,229.493 228.866,219.826 241.5,203.5C 243.336,201.412 245.669,200.079 248.5,199.5 Z"/></g>
<g><path style="opacity:1" fill="#f8c24c" d="M 241.5,203.5 C 228.866,219.826 212.2,229.493 191.5,232.5C 191.5,233.5 191.5,234.5 191.5,235.5C 191.672,236.492 191.338,237.158 190.5,237.5C 190.201,235.396 190.534,233.396 191.5,231.5C 208.221,222.143 224.888,212.809 241.5,203.5 Z"/></g>
<g><path style="opacity:1" fill="#71b725" d="M 74.5,183.5 C 77.05,185.005 79.05,187.005 80.5,189.5C 80.8897,192.839 81.3897,196.173 82,199.5C 87.9062,204.482 90.0728,210.815 88.5,218.5C 86.525,215.694 84.025,213.361 81,211.5C 80.3333,208.833 79.6667,206.167 79,203.5C 78.3292,202.748 77.4959,202.414 76.5,202.5C 75.7323,196.193 75.0657,189.859 74.5,183.5 Z"/></g>
<g><path style="opacity:1" fill="#f5b63b" d="M 272.5,196.5 C 272.842,197.338 273.508,197.672 274.5,197.5C 275.167,197.5 275.5,197.833 275.5,198.5C 274.4,199.558 273.066,200.392 271.5,201C 271.833,201.333 272.167,201.667 272.5,202C 271.748,203.867 270.748,205.701 269.5,207.5C 266.249,212.243 261.915,215.743 256.5,218C 247.578,231.477 235.578,240.311 220.5,244.5C 215.149,249.676 208.815,253.009 201.5,254.5C 198.861,255.192 196.194,254.859 193.5,253.5C 195.647,251.53 197.98,249.697 200.5,248C 201.784,247.316 202.951,247.483 204,248.5C 204.691,246.109 205.691,246.109 207,248.5C 215.465,242.462 224.631,236.629 234.5,231C 242.596,223.568 251.263,216.901 260.5,211C 261.694,207.238 263.361,203.738 265.5,200.5C 267.969,199.431 270.302,198.098 272.5,196.5 Z"/></g>
<g><path style="opacity:1" fill="#9ac82f" d="M 65.5,188.5 C 66.5,191.167 67.5,193.833 68.5,196.5C 70.8935,202.287 73.5602,207.954 76.5,213.5C 75.8761,213.917 75.5427,214.584 75.5,215.5C 76.144,219.578 77.4774,223.411 79.5,227C 79.3893,228.722 78.8893,228.888 78,227.5C 77.8171,230.365 77.3171,233.031 76.5,235.5C 71.0122,228.343 66.3456,220.676 62.5,212.5C 62.3398,210.801 62.5065,209.134 63,207.5C 63.6667,208.167 64.3333,208.833 65,209.5C 64.8593,202.327 65.0259,195.327 65.5,188.5 Z"/></g>
<g><path style="opacity:0.809" fill="#f6b62e" d="M 127.5,204.5 C 130.665,207.91 134.332,210.577 138.5,212.5C 134.359,217.74 131.859,223.74 131,230.5C 129.386,221.919 128.219,213.253 127.5,204.5 Z"/></g>
<g><path style="opacity:1" fill="#f9ca64" d="M 284.5,198.5 C 286.301,200.138 287.967,201.971 289.5,204C 290.5,204.333 291.5,204.667 292.5,205C 291.117,206.461 291.451,207.294 293.5,207.5C 290.845,214.817 287.178,221.484 282.5,227.5C 282.291,226.078 281.791,224.745 281,223.5C 280.667,223.833 280.333,224.167 280,224.5C 278.011,222.161 275.511,220.827 272.5,220.5C 276.674,214.154 280.341,207.488 283.5,200.5C 283.328,199.508 283.662,198.842 284.5,198.5 Z"/></g>
<g><path style="opacity:1" fill="#66b328" d="M 76.5,202.5 C 77.4959,202.414 78.3292,202.748 79,203.5C 79.6667,206.167 80.3333,208.833 81,211.5C 84.025,213.361 86.525,215.694 88.5,218.5C 88.5,219.5 88.5,220.5 88.5,221.5C 88.5,224.167 88.5,226.833 88.5,229.5C 84.1125,225.071 80.4458,220.071 77.5,214.5C 77.1667,210.5 76.8333,206.5 76.5,202.5 Z"/></g>
<g><path style="opacity:0.965" fill="#fbda94" d="M 176.5,227.5 C 166.814,227.375 157.814,225.042 149.5,220.5C 156.334,214.507 163.667,214.007 171.5,219C 174.072,221.313 175.739,224.146 176.5,227.5 Z"/></g>
<g><path style="opacity:0.742" fill="#c0c1c0" d="M 501.5,221.5 C 508.394,220.786 513.394,223.453 516.5,229.5C 513.454,230.85 511.12,230.017 509.5,227C 501.639,223.933 496.973,226.599 495.5,235C 496.391,242.231 500.391,245.231 507.5,244C 510.534,242.809 512.201,240.642 512.5,237.5C 509.5,237.5 506.5,237.5 503.5,237.5C 503.5,236.167 503.5,234.833 503.5,233.5C 508.167,233.5 512.833,233.5 517.5,233.5C 517.797,242.535 513.463,247.535 504.5,248.5C 492.32,245.499 488.82,238.166 494,226.5C 496.17,224.177 498.67,222.51 501.5,221.5 Z"/></g>
<g><path style="opacity:0.776" fill="#c0c1c0" d="M 566.5,221.5 C 568.722,221.178 570.556,221.845 572,223.5C 575.667,229.167 579.333,234.833 583,240.5C 583.5,234.175 583.666,227.842 583.5,221.5C 584.833,221.5 586.167,221.5 587.5,221.5C 587.5,230.167 587.5,238.833 587.5,247.5C 585.712,247.785 584.045,247.452 582.5,246.5C 578.667,240.833 574.833,235.167 571,229.5C 570.501,235.491 570.334,241.491 570.5,247.5C 569.167,247.5 567.833,247.5 566.5,247.5C 566.5,238.833 566.5,230.167 566.5,221.5 Z"/></g>
<g><path style="opacity:0.777" fill="#c0c1c0" d="M 598.5,221.5 C 603.5,221.5 608.5,221.5 613.5,221.5C 613.5,222.833 613.5,224.167 613.5,225.5C 609.833,225.5 606.167,225.5 602.5,225.5C 602.5,228.167 602.5,230.833 602.5,233.5C 605.833,233.5 609.167,233.5 612.5,233.5C 612.5,234.5 612.5,235.5 612.5,236.5C 609.167,236.5 605.833,236.5 602.5,236.5C 602.5,239.167 602.5,241.833 602.5,244.5C 606.167,244.5 609.833,244.5 613.5,244.5C 613.5,245.5 613.5,246.5 613.5,247.5C 608.5,247.5 603.5,247.5 598.5,247.5C 598.5,238.833 598.5,230.167 598.5,221.5 Z"/></g>
<g><path style="opacity:0.777" fill="#c0c1c0" d="M 673.5,221.5 C 678.5,221.5 683.5,221.5 688.5,221.5C 688.5,222.833 688.5,224.167 688.5,225.5C 684.833,225.5 681.167,225.5 677.5,225.5C 677.5,228.167 677.5,230.833 677.5,233.5C 680.833,233.5 684.167,233.5 687.5,233.5C 687.5,234.5 687.5,235.5 687.5,236.5C 684.167,236.5 680.833,236.5 677.5,236.5C 677.5,239.167 677.5,241.833 677.5,244.5C 681.167,244.5 684.833,244.5 688.5,244.5C 688.5,245.5 688.5,246.5 688.5,247.5C 683.5,247.5 678.5,247.5 673.5,247.5C 673.5,238.833 673.5,230.167 673.5,221.5 Z"/></g>
<g><path style="opacity:0.777" fill="#c0c1c0" d="M 728.5,221.5 C 733.5,221.5 738.5,221.5 743.5,221.5C 743.5,222.833 743.5,224.167 743.5,225.5C 739.833,225.5 736.167,225.5 732.5,225.5C 732.5,228.167 732.5,230.833 732.5,233.5C 735.833,233.5 739.167,233.5 742.5,233.5C 742.5,234.5 742.5,235.5 742.5,236.5C 739.167,236.5 735.833,236.5 732.5,236.5C 732.5,239.167 732.5,241.833 732.5,244.5C 736.167,244.5 739.833,244.5 743.5,244.5C 743.5,245.5 743.5,246.5 743.5,247.5C 738.5,247.5 733.5,247.5 728.5,247.5C 728.5,238.833 728.5,230.167 728.5,221.5 Z"/></g>
<g><path style="opacity:1" fill="#f4b244" d="M 269.5,207.5 C 269.5,208.167 269.5,208.833 269.5,209.5C 261.039,222.143 250.372,233.31 237.5,243C 228.173,247.166 218.839,251.333 209.5,255.5C 207.997,254.948 206.331,254.948 204.5,255.5C 203.209,255.737 202.209,255.404 201.5,254.5C 208.815,253.009 215.149,249.676 220.5,244.5C 235.578,240.311 247.578,231.477 256.5,218C 261.915,215.743 266.249,212.243 269.5,207.5 Z"/></g>
<g><path style="opacity:0.846" fill="#c0c1c0" d="M 433.5,222.5 C 439.5,222.5 445.5,222.5 451.5,222.5C 451.5,223.5 451.5,224.5 451.5,225.5C 449.167,225.5 446.833,225.5 444.5,225.5C 444.5,232.833 444.5,240.167 444.5,247.5C 443.167,247.5 441.833,247.5 440.5,247.5C 440.5,240.167 440.5,232.833 440.5,225.5C 438.167,225.5 435.833,225.5 433.5,225.5C 433.5,224.5 433.5,223.5 433.5,222.5 Z"/></g>
<g><path style="opacity:0.774" fill="#c0c1c0" d="M 469.5,222.5 C 471.167,222.5 472.833,222.5 474.5,222.5C 477.167,230.833 479.833,239.167 482.5,247.5C 479.255,247.707 477.255,246.207 476.5,243C 473.167,242.333 469.833,242.333 466.5,243C 466.018,247.005 464.018,248.172 460.5,246.5C 463.508,238.471 466.508,230.471 469.5,222.5 Z M 470.5,229.5 C 471.376,229.369 472.043,229.702 472.5,230.5C 473.407,233.057 474.407,235.557 475.5,238C 473.19,238.497 470.857,238.663 468.5,238.5C 469.167,235.5 469.833,232.5 470.5,229.5 Z"/></g>
<g><path style="opacity:0.831" fill="#c0c1c0" d="M 527.5,222.5 C 528.833,222.5 530.167,222.5 531.5,222.5C 531.5,229.833 531.5,237.167 531.5,244.5C 534.5,244.5 537.5,244.5 540.5,244.5C 540.5,245.5 540.5,246.5 540.5,247.5C 536.167,247.5 531.833,247.5 527.5,247.5C 527.5,239.167 527.5,230.833 527.5,222.5 Z"/></g>
<g><path style="opacity:0.817" fill="#c0c1c0" d="M 550.5,222.5 C 551.833,222.5 553.167,222.5 554.5,222.5C 554.5,230.833 554.5,239.167 554.5,247.5C 553.167,247.5 551.833,247.5 550.5,247.5C 550.5,239.167 550.5,230.833 550.5,222.5 Z"/></g>
<g><path style="opacity:0.84" fill="#c0c1c0" d="M 641.5,222.5 C 642.833,222.5 644.167,222.5 645.5,222.5C 645.5,226.167 645.5,229.833 645.5,233.5C 649.5,233.5 653.5,233.5 657.5,233.5C 657.5,229.833 657.5,226.167 657.5,222.5C 658.833,222.5 660.167,222.5 661.5,222.5C 661.5,230.833 661.5,239.167 661.5,247.5C 660.167,247.5 658.833,247.5 657.5,247.5C 657.5,243.833 657.5,240.167 657.5,236.5C 653.5,236.5 649.5,236.5 645.5,236.5C 645.5,240.167 645.5,243.833 645.5,247.5C 644.167,247.5 642.833,247.5 641.5,247.5C 641.5,239.167 641.5,230.833 641.5,222.5 Z"/></g>
<g><path style="opacity:0.804" fill="#c0c1c0" d="M 699.5,222.5 C 704.179,222.334 708.845,222.501 713.5,223C 717.124,225.161 718.291,228.328 717,232.5C 715.854,234.644 714.354,236.477 712.5,238C 714.034,240.899 715.701,243.733 717.5,246.5C 715.833,247.833 714.167,247.833 712.5,246.5C 710.833,243.833 709.167,241.167 707.5,238.5C 706.311,237.571 704.978,237.238 703.5,237.5C 703.5,240.833 703.5,244.167 703.5,247.5C 702.167,247.5 700.833,247.5 699.5,247.5C 699.5,239.167 699.5,230.833 699.5,222.5 Z M 703.5,225.5 C 705.857,225.337 708.19,225.503 710.5,226C 714.476,228.617 714.476,231.284 710.5,234C 708.19,234.497 705.857,234.663 703.5,234.5C 703.5,231.5 703.5,228.5 703.5,225.5 Z"/></g>
<g><path style="opacity:1" fill="#6ab423" d="M 103.5,232.5 C 103.505,236.534 103.838,240.534 104.5,244.5C 100.167,241.167 95.8333,237.833 91.5,234.5C 90.7803,228.862 90.447,223.196 90.5,217.5C 90.3398,215.801 90.5065,214.134 91,212.5C 94.2853,217.454 97.952,222.12 102,226.5C 102.191,228.708 102.691,230.708 103.5,232.5 Z"/></g>
<g><path style="opacity:0.967" fill="#fad688" d="M 149.5,220.5 C 157.814,225.042 166.814,227.375 176.5,227.5C 177.473,229.948 177.806,232.615 177.5,235.5C 166.35,234.713 155.684,232.046 145.5,227.5C 146.079,224.669 147.412,222.336 149.5,220.5 Z"/></g>
<g><path style="opacity:1" fill="#f2ae4a" d="M 283.5,200.5 C 280.341,207.488 276.674,214.154 272.5,220.5C 269.209,225.127 265.542,229.46 261.5,233.5C 259.217,233.608 257.217,234.441 255.5,236C 246.251,244.317 236.418,250.151 226,253.5C 224.984,252.366 224.317,252.699 224,254.5C 223.667,254.167 223.333,253.833 223,253.5C 218.157,256.588 213.491,259.921 209,263.5C 207.178,263.032 205.011,262.699 202.5,262.5C 200.958,261.699 199.292,261.366 197.5,261.5C 200.02,259.737 202.353,257.737 204.5,255.5C 206.331,254.948 207.997,254.948 209.5,255.5C 218.839,251.333 228.173,247.166 237.5,243C 250.372,233.31 261.039,222.143 269.5,209.5C 273.855,205.991 278.522,202.991 283.5,200.5 Z"/></g>
<g><path style="opacity:0.969" fill="#fad37e" d="M 145.5,227.5 C 155.684,232.046 166.35,234.713 177.5,235.5C 176.905,238.317 175.572,240.65 173.5,242.5C 163.88,241.761 154.546,239.761 145.5,236.5C 144.225,233.604 144.225,230.604 145.5,227.5 Z"/></g>
<g><path style="opacity:1" fill="#92c41b" d="M 76.5,213.5 C 76.5,214.167 76.8333,214.5 77.5,214.5C 80.4458,220.071 84.1125,225.071 88.5,229.5C 88.553,235.196 88.2197,240.862 87.5,246.5C 83.5,243.167 79.8333,239.5 76.5,235.5C 77.3171,233.031 77.8171,230.365 78,227.5C 78.8893,228.888 79.3893,228.722 79.5,227C 77.4774,223.411 76.144,219.578 75.5,215.5C 75.5427,214.584 75.8761,213.917 76.5,213.5 Z"/></g>
<g><path style="opacity:1" fill="#f9ce70" d="M 272.5,220.5 C 275.511,220.827 278.011,222.161 280,224.5C 280.333,224.167 280.667,223.833 281,223.5C 281.791,224.745 282.291,226.078 282.5,227.5C 265.206,252.493 241.873,269.159 212.5,277.5C 209.848,277.45 208.848,276.45 209.5,274.5C 207.665,273.572 207.332,272.406 208.5,271C 207.833,270.667 207.167,270.333 206.5,270C 207.684,268.855 207.684,267.688 206.5,266.5C 228.138,260.832 246.471,249.832 261.5,233.5C 265.542,229.46 269.209,225.127 272.5,220.5 Z"/></g>
<g><path style="opacity:0.951" fill="#facf72" d="M 145.5,236.5 C 154.546,239.761 163.88,241.761 173.5,242.5C 169.181,248.088 163.514,249.921 156.5,248C 150.574,246.243 146.908,242.409 145.5,236.5 Z"/></g>
<g><path style="opacity:0.935" fill="#92c417" d="M 91.5,234.5 C 95.8333,237.833 100.167,241.167 104.5,244.5C 104.653,250.845 104.986,257.178 105.5,263.5C 101.208,260.543 97.2079,257.21 93.5,253.5C 92.8333,247.167 92.1667,240.833 91.5,234.5 Z"/></g>
<g><path style="opacity:1" fill="#f1ac4f" d="M 261.5,233.5 C 246.471,249.832 228.138,260.832 206.5,266.5C 202.924,267.485 199.258,268.152 195.5,268.5C 197.833,266.5 200.167,264.5 202.5,262.5C 205.011,262.699 207.178,263.032 209,263.5C 213.491,259.921 218.157,256.588 223,253.5C 223.333,253.833 223.667,254.167 224,254.5C 224.317,252.699 224.984,252.366 226,253.5C 236.418,250.151 246.251,244.317 255.5,236C 257.217,234.441 259.217,233.608 261.5,233.5 Z"/></g>
<g><path style="opacity:0.964" fill="#f1a52c" d="M 144.5,257.5 C 141.044,257.404 137.877,256.404 135,254.5C 134.517,255.448 134.351,256.448 134.5,257.5C 132.978,252.35 132.144,247.017 132,241.5C 135.298,247.617 139.465,252.951 144.5,257.5 Z"/></g>
<g><path style="opacity:1" fill="#f2a732" d="M 193.5,253.5 C 196.194,254.859 198.861,255.192 201.5,254.5C 202.209,255.404 203.209,255.737 204.5,255.5C 202.353,257.737 200.02,259.737 197.5,261.5C 195.218,260.61 192.885,260.444 190.5,261C 188.759,262.62 186.925,264.12 185,265.5C 182.051,263.796 178.885,262.462 175.5,261.5C 173.214,262.133 171.548,263.466 170.5,265.5C 168.355,264.011 166.022,263.011 163.5,262.5C 170.41,260.88 176.743,257.88 182.5,253.5C 186.221,253.255 189.888,253.255 193.5,253.5 Z"/></g>
<g><path style="opacity:1" fill="#ed9828" d="M 144.5,257.5 C 150.446,260.557 156.779,262.224 163.5,262.5C 166.022,263.011 168.355,264.011 170.5,265.5C 173.826,265.967 174.159,267.134 171.5,269C 168.518,269.498 165.518,269.665 162.5,269.5C 161.167,269.5 159.833,269.5 158.5,269.5C 150.748,267.918 143.082,265.918 135.5,263.5C 134.539,261.735 134.205,259.735 134.5,257.5C 134.351,256.448 134.517,255.448 135,254.5C 137.877,256.404 141.044,257.404 144.5,257.5 Z"/></g>
<g><path style="opacity:0.908" fill="#82bd1c" d="M 93.5,253.5 C 97.2079,257.21 101.208,260.543 105.5,263.5C 106.114,267.135 106.448,270.802 106.5,274.5C 102.656,272.078 98.9895,269.411 95.5,266.5C 94.7524,262.188 94.0857,257.854 93.5,253.5 Z"/></g>
<g><path style="opacity:0.981" fill="#f7bf43" d="M 135.5,263.5 C 143.082,265.918 150.748,267.918 158.5,269.5C 161.387,273.46 163.721,277.793 165.5,282.5C 161.812,282.219 158.145,281.719 154.5,281C 152.355,279.057 150.688,276.724 149.5,274C 144.972,272.955 140.639,271.455 136.5,269.5C 135.659,267.621 135.325,265.621 135.5,263.5 Z"/></g>
<g><path style="opacity:1" fill="#efa139" d="M 197.5,261.5 C 199.292,261.366 200.958,261.699 202.5,262.5C 200.167,264.5 197.833,266.5 195.5,268.5C 194.292,269.234 192.959,269.567 191.5,269.5C 185.879,270.354 180.212,270.687 174.5,270.5C 170.298,270.817 166.298,270.483 162.5,269.5C 165.518,269.665 168.518,269.498 171.5,269C 174.159,267.134 173.826,265.967 170.5,265.5C 171.548,263.466 173.214,262.133 175.5,261.5C 178.885,262.462 182.051,263.796 185,265.5C 186.925,264.12 188.759,262.62 190.5,261C 192.885,260.444 195.218,260.61 197.5,261.5 Z"/></g>
<g><path style="opacity:1" fill="#f9ca66" d="M 206.5,266.5 C 207.684,267.688 207.684,268.855 206.5,270C 207.167,270.333 207.833,270.667 208.5,271C 207.332,272.406 207.665,273.572 209.5,274.5C 208.848,276.45 209.848,277.45 212.5,277.5C 208.736,278.992 204.736,279.992 200.5,280.5C 199.167,280.5 197.833,280.5 196.5,280.5C 196.034,278.799 196.034,277.299 196.5,276C 193.833,275.333 193.833,274.667 196.5,274C 195.5,273.667 194.5,273.333 193.5,273C 194.048,271.404 193.382,270.237 191.5,269.5C 192.959,269.567 194.292,269.234 195.5,268.5C 199.258,268.152 202.924,267.485 206.5,266.5 Z"/></g>
<g><path style="opacity:1" fill="#f8c451" d="M 158.5,269.5 C 159.833,269.5 161.167,269.5 162.5,269.5C 166.298,270.483 170.298,270.817 174.5,270.5C 176.217,274.263 178.217,277.93 180.5,281.5C 182.743,282.474 185.076,282.808 187.5,282.5C 180.316,283.702 172.982,283.702 165.5,282.5C 163.721,277.793 161.387,273.46 158.5,269.5 Z"/></g>
<g><path style="opacity:1" fill="#f8c75c" d="M 191.5,269.5 C 193.382,270.237 194.048,271.404 193.5,273C 194.5,273.333 195.5,273.667 196.5,274C 193.833,274.667 193.833,275.333 196.5,276C 196.034,277.299 196.034,278.799 196.5,280.5C 197.833,280.5 199.167,280.5 200.5,280.5C 196.409,281.895 192.076,282.562 187.5,282.5C 185.076,282.808 182.743,282.474 180.5,281.5C 178.217,277.93 176.217,274.263 174.5,270.5C 180.212,270.687 185.879,270.354 191.5,269.5 Z"/></g>
<g><path style="opacity:0.922" fill="#6db522" d="M 95.5,266.5 C 98.9895,269.411 102.656,272.078 106.5,274.5C 107.459,281.468 108.126,288.468 108.5,295.5C 105.339,294.087 102.339,292.42 99.5,290.5C 97.5389,282.733 96.2055,274.733 95.5,266.5 Z"/></g>
<g><path style="opacity:0.919" fill="#f2a725" d="M 142.5,294.5 C 147.167,295.5 151.833,296.5 156.5,297.5C 157.652,301.107 158.652,304.773 159.5,308.5C 154.868,307.617 150.202,306.95 145.5,306.5C 144.09,302.603 143.09,298.603 142.5,294.5 Z"/></g>
<g><path style="opacity:0.938" fill="#f2a725" d="M 217.5,294.5 C 216.703,298.223 215.703,301.89 214.5,305.5C 210.618,306.803 206.618,307.47 202.5,307.5C 202.926,303.573 203.926,299.907 205.5,296.5C 209.5,295.833 213.5,295.167 217.5,294.5 Z"/></g>
<g><path style="opacity:0.877" fill="#54ac29" d="M 99.5,290.5 C 102.339,292.42 105.339,294.087 108.5,295.5C 109.818,302.05 111.151,308.716 112.5,315.5C 109.339,314.087 106.339,312.42 103.5,310.5C 101.531,303.989 100.198,297.323 99.5,290.5 Z"/></g>
<g><path style="opacity:0.908" fill="#ee9b25" d="M 145.5,306.5 C 150.202,306.95 154.868,307.617 159.5,308.5C 160.703,312.11 161.703,315.777 162.5,319.5C 158.481,319.354 154.481,319.021 150.5,318.5C 148.461,314.734 146.795,310.734 145.5,306.5 Z"/></g>
<g><path style="opacity:0.903" fill="#ee9b25" d="M 214.5,305.5 C 213.03,309.912 211.363,314.245 209.5,318.5C 205.821,318.724 202.154,319.058 198.5,319.5C 199.261,315.216 200.595,311.216 202.5,307.5C 206.618,307.47 210.618,306.803 214.5,305.5 Z"/></g>
<g><path style="opacity:0.901" fill="#42a52e" d="M 103.5,310.5 C 106.339,312.42 109.339,314.087 112.5,315.5C 115.935,317.167 119.101,319.501 122,322.5C 123.734,326.457 123.901,330.457 122.5,334.5C 120.421,334.029 118.421,333.363 116.5,332.5C 118.284,326.028 115.95,323.361 109.5,324.5C 107.574,323.514 105.574,322.514 103.5,321.5C 104.355,320.469 105.022,319.303 105.5,318C 104.521,315.567 103.855,313.067 103.5,310.5 Z"/></g>
<g><path style="opacity:0.887" fill="#eb8e24" d="M 209.5,318.5 C 208.397,322.497 206.731,326.164 204.5,329.5C 200.865,330.114 197.198,330.448 193.5,330.5C 194.93,326.646 196.597,322.979 198.5,319.5C 202.154,319.058 205.821,318.724 209.5,318.5 Z"/></g>
<g><path style="opacity:0.919" fill="#eb8e24" d="M 150.5,318.5 C 154.481,319.021 158.481,319.354 162.5,319.5C 164.403,322.979 166.07,326.646 167.5,330.5C 163.434,330.693 159.434,330.36 155.5,329.5C 153.043,326.249 151.376,322.582 150.5,318.5 Z"/></g>
<g><path style="opacity:0.905" fill="#309e33" d="M 103.5,321.5 C 105.574,322.514 107.574,323.514 109.5,324.5C 105.238,328.906 106.071,332.239 112,334.5C 113.585,333.956 115.085,333.289 116.5,332.5C 118.421,333.363 120.421,334.029 122.5,334.5C 118.111,340.434 112.445,341.934 105.5,339C 100.847,335.212 99.3468,330.378 101,324.5C 101.377,323.058 102.21,322.058 103.5,321.5 Z"/></g>
<g><path style="opacity:0.881" fill="#e78124" d="M 204.5,329.5 C 202.597,334.068 200.264,338.402 197.5,342.5C 193.5,342.5 189.5,342.5 185.5,342.5C 188.592,338.749 191.259,334.749 193.5,330.5C 197.198,330.448 200.865,330.114 204.5,329.5 Z"/></g>
<g><path style="opacity:0.899" fill="#e78124" d="M 155.5,329.5 C 159.434,330.36 163.434,330.693 167.5,330.5C 169.993,333.672 173.16,336.005 177,337.5C 186.072,333.255 186.572,334.755 178.5,342C 173.282,345.359 168.282,345.026 163.5,341C 160.197,337.545 157.531,333.711 155.5,329.5 Z"/></g>
<g><path style="opacity:0.858" fill="#e27324" d="M 185.5,342.5 C 189.5,342.5 193.5,342.5 197.5,342.5C 193.159,350.154 186.826,355.154 178.5,357.5C 177.167,357.5 175.833,357.5 174.5,357.5C 167.827,355.001 162.827,350.501 159.5,344C 163.159,347.074 167.493,349.241 172.5,350.5C 177.878,349.442 182.211,346.775 185.5,342.5 Z"/></g>
</svg>
