<svg width="160" height="98" viewBox="0 0 160 98" fill="none" xmlns="http://www.w3.org/2000/svg">
<path fill-rule="evenodd" clip-rule="evenodd" d="M61.0947 1.45459C41.4671 1.45459 31.0804 12.9102 26.6611 22.1819H48.2521C48.8511 20.487 50.4675 19.2728 52.3674 19.2728C54.7774 19.2728 56.7311 21.2264 56.7311 23.6364C56.7311 26.0464 54.7774 28 52.3674 28C50.4675 28 48.8511 26.7858 48.2521 25.091H25.4344C24.9531 26.4033 24.6012 27.6314 24.3674 28.7273C17.1214 30.3124 3.17061 37.1217 1.59933 52H16.2521C16.8511 50.3052 18.4675 49.091 20.3674 49.091C22.7774 49.091 24.7311 51.0446 24.7311 53.4546C24.7311 55.8646 22.7774 57.8182 20.3674 57.8182C18.4675 57.8182 16.8511 56.604 16.2521 54.9091H1.45453C1.45502 55.0299 1.45629 55.1511 1.45835 55.2728C1.82199 76.7273 20.7311 80 26.5493 80C31.2038 80 34.3068 77.8182 35.2765 76.7273C40.125 83.7576 54.622 97.6728 73.822 97.091C88.1727 96.6561 98 90.6414 103.365 85.4546H79.7555C79.1565 87.1494 77.5401 88.3637 75.6402 88.3637C73.2302 88.3637 71.2765 86.41 71.2765 84C71.2765 81.5901 73.2302 79.6364 75.6402 79.6364C77.5401 79.6364 79.1565 80.8507 79.7555 82.5455H106.007C106.52 81.8915 106.943 81.2794 107.277 80.7273C107.277 80.7273 109.822 84 115.64 84C124.949 84 127.519 75.7576 127.64 71.6364C127.64 72.8485 133.095 75.6364 139.277 75.6364C150.675 75.6364 158.228 66.2244 158.539 54.9091H140.846C140.247 56.604 138.631 57.8182 136.731 57.8182C134.321 57.8182 132.367 55.8646 132.367 53.4546C132.367 51.0446 134.321 49.091 136.731 49.091C138.631 49.091 140.247 50.3052 140.846 52H158.425C157.216 41.4715 147.449 33.8182 139.277 33.8182C130.549 33.8182 127.64 36.7273 127.64 37.091C122.549 22.5455 109.458 19.2728 104.004 19.2728C97.4583 19.2728 94.1856 20.7273 94.1856 20.7273C88.3674 10.1819 79.6402 1.45459 61.0947 1.45459Z" fill="#0EC9AC"/>
<path d="M36.4538 45.6261C36.4538 45.5583 36.4742 45.504 36.5149 45.4632C36.5692 45.4089 36.6303 45.3818 36.6982 45.3818H39.0807C39.1486 45.3818 39.2029 45.4089 39.2436 45.4632C39.2979 45.504 39.3251 45.5583 39.3251 45.6261V59.392C39.3251 59.4598 39.2979 59.5209 39.2436 59.5752C39.2029 59.616 39.1486 59.6363 39.0807 59.6363H36.6982C36.6303 59.6363 36.5692 59.616 36.5149 59.5752C36.4742 59.5209 36.4538 59.4598 36.4538 59.392V53.7716C36.4538 53.7037 36.4199 53.6698 36.352 53.6698H31.8516C31.7838 53.6698 31.7498 53.7037 31.7498 53.7716V59.392C31.7498 59.4598 31.7227 59.5209 31.6684 59.5752C31.6276 59.616 31.5733 59.6363 31.5054 59.6363H29.1229C29.055 59.6363 28.9939 59.616 28.9396 59.5752C28.8989 59.5209 28.8785 59.4598 28.8785 59.392V45.6261C28.8785 45.5583 28.8989 45.504 28.9396 45.4632C28.9939 45.4089 29.055 45.3818 29.1229 45.3818H31.5054C31.5733 45.3818 31.6276 45.4089 31.6684 45.4632C31.7227 45.504 31.7498 45.5583 31.7498 45.6261V51.104C31.7498 51.1718 31.7838 51.2058 31.8516 51.2058H36.352C36.4199 51.2058 36.4538 51.1718 36.4538 51.104V45.6261Z" fill="white"/>
<path d="M42.2357 63.6887C42.1949 63.6887 42.161 63.6615 42.1338 63.6072C42.1067 63.5665 42.0931 63.5122 42.0931 63.4443V61.5709C42.0931 61.503 42.1135 61.4419 42.1542 61.3876C42.2085 61.3469 42.2696 61.3265 42.3375 61.3265C42.9077 61.3129 43.3557 61.2654 43.6815 61.184C44.0209 61.1025 44.2856 60.9464 44.4757 60.7156C44.6793 60.4848 44.8354 60.1454 44.944 59.6974C44.9576 59.6703 44.9576 59.6295 44.944 59.5752L41.6044 49.4341C41.5908 49.407 41.584 49.3731 41.584 49.3323C41.584 49.2101 41.6587 49.1491 41.808 49.1491H44.3535C44.5028 49.1491 44.5978 49.2169 44.6386 49.3527L46.3491 55.9505C46.3627 55.9912 46.383 56.0116 46.4102 56.0116C46.4374 56.0116 46.4577 55.9912 46.4713 55.9505L48.1818 49.3527C48.2226 49.2169 48.3176 49.1491 48.4669 49.1491H50.9513C51.0327 49.1491 51.087 49.1762 51.1142 49.2305C51.1549 49.2712 51.1617 49.3391 51.1346 49.4341L47.6117 60.0232C47.2723 61.0143 46.9261 61.7541 46.5731 62.2429C46.2201 62.7452 45.7246 63.1117 45.0866 63.3425C44.4485 63.5733 43.5457 63.6887 42.3782 63.6887H42.2357Z" fill="white"/>
<path d="M62.6381 51.8371C62.896 52.543 63.025 53.3847 63.025 54.3621C63.025 55.2989 62.9096 56.1202 62.6788 56.8261C62.3666 57.7493 61.8643 58.4756 61.1719 59.0051C60.4931 59.5345 59.6854 59.7992 58.7487 59.7992C57.7576 59.7992 56.977 59.4259 56.4068 58.6792C56.3797 58.6521 56.3525 58.6453 56.3254 58.6589C56.2982 58.6589 56.2847 58.6792 56.2847 58.72V59.392C56.2847 59.4598 56.2575 59.5209 56.2032 59.5752C56.1625 59.616 56.1082 59.6363 56.0403 59.6363H53.6577C53.5899 59.6363 53.5288 59.616 53.4745 59.5752C53.4337 59.5209 53.4134 59.4598 53.4134 59.392V45.6261C53.4134 45.5583 53.4337 45.504 53.4745 45.4632C53.5288 45.4089 53.5899 45.3818 53.6577 45.3818H56.0403C56.1082 45.3818 56.1625 45.4089 56.2032 45.4632C56.2575 45.504 56.2847 45.5583 56.2847 45.6261V49.984C56.2847 50.0247 56.2982 50.0518 56.3254 50.0654C56.3525 50.079 56.3797 50.0654 56.4068 50.0247C56.9363 49.3459 57.6897 49.0065 58.6672 49.0065C59.6582 49.0065 60.4864 49.2644 61.1516 49.7803C61.8304 50.2826 62.3259 50.9682 62.6381 51.8371ZM59.6243 56.4596C59.9094 55.9437 60.0519 55.2649 60.0519 54.4232C60.0519 53.4865 59.889 52.767 59.5632 52.2647C59.2374 51.7352 58.7554 51.4705 58.1174 51.4705C57.52 51.4705 57.0653 51.7352 56.753 52.2647C56.4544 52.7806 56.305 53.4933 56.305 54.4029C56.305 55.3125 56.4408 55.998 56.7123 56.4596C57.0381 57.0434 57.5133 57.3352 58.1377 57.3352C58.803 57.3352 59.2985 57.0434 59.6243 56.4596Z" fill="white"/>
<path d="M70.9344 49.0269C71.4231 49.0269 71.81 49.1219 72.0951 49.312C72.2037 49.3663 72.2444 49.4681 72.2173 49.6174L71.7897 51.9389C71.7761 52.1018 71.681 52.1493 71.5046 52.0814C71.3009 52.0135 71.0634 51.9796 70.7918 51.9796C70.6832 51.9796 70.5339 51.9932 70.3438 52.0203C69.8551 52.0611 69.441 52.2443 69.1017 52.5701C68.7623 52.8824 68.5926 53.3032 68.5926 53.8327V59.392C68.5926 59.4598 68.5654 59.5209 68.5111 59.5752C68.4704 59.616 68.4161 59.6363 68.3482 59.6363H65.9657C65.8978 59.6363 65.8367 59.616 65.7824 59.5752C65.7417 59.5209 65.7213 59.4598 65.7213 59.392V49.4138C65.7213 49.3459 65.7417 49.2916 65.7824 49.2509C65.8367 49.1966 65.8978 49.1694 65.9657 49.1694H68.3482C68.4161 49.1694 68.4704 49.1966 68.5111 49.2509C68.5654 49.2916 68.5926 49.3459 68.5926 49.4138V50.1876C68.5926 50.2283 68.6061 50.2555 68.6333 50.2691C68.6604 50.2826 68.6808 50.2758 68.6944 50.2487C69.251 49.4341 69.9977 49.0269 70.9344 49.0269Z" fill="white"/>
<path d="M75.8789 47.9883C75.4174 47.9883 75.0304 47.839 74.7182 47.5403C74.4195 47.2281 74.2702 46.8412 74.2702 46.3796C74.2702 45.9044 74.4195 45.5175 74.7182 45.2189C75.0169 44.9202 75.4038 44.7709 75.8789 44.7709C76.3541 44.7709 76.741 44.9202 77.0397 45.2189C77.3383 45.5175 77.4877 45.9044 77.4877 46.3796C77.4877 46.8412 77.3315 47.2281 77.0193 47.5403C76.7206 47.839 76.3405 47.9883 75.8789 47.9883ZM74.6571 59.6363C74.5892 59.6363 74.5281 59.616 74.4738 59.5752C74.4331 59.5209 74.4127 59.4598 74.4127 59.392V49.3934C74.4127 49.3255 74.4331 49.2712 74.4738 49.2305C74.5281 49.1762 74.5892 49.1491 74.6571 49.1491H77.0397C77.1075 49.1491 77.1618 49.1762 77.2026 49.2305C77.2569 49.2712 77.284 49.3255 77.284 49.3934V59.392C77.284 59.4598 77.2569 59.5209 77.2026 59.5752C77.1618 59.616 77.1075 59.6363 77.0397 59.6363H74.6571Z" fill="white"/>
<path d="M86.8322 45.6261C86.8322 45.5583 86.8525 45.504 86.8933 45.4632C86.9476 45.4089 87.0087 45.3818 87.0765 45.3818H89.4591C89.527 45.3818 89.5813 45.4089 89.622 45.4632C89.6763 45.504 89.7034 45.5583 89.7034 45.6261V59.392C89.7034 59.4598 89.6763 59.5209 89.622 59.5752C89.5813 59.616 89.527 59.6363 89.4591 59.6363H87.0765C87.0087 59.6363 86.9476 59.616 86.8933 59.5752C86.8525 59.5209 86.8322 59.4598 86.8322 59.392V58.72C86.8322 58.6792 86.8186 58.6589 86.7915 58.6589C86.7643 58.6453 86.7371 58.6521 86.71 58.6792C86.1398 59.4259 85.3592 59.7992 84.3682 59.7992C83.4179 59.7992 82.5965 59.5345 81.9042 59.0051C81.2254 58.4756 80.7367 57.7493 80.438 56.8261C80.2072 56.1202 80.0918 55.2989 80.0918 54.3621C80.0918 53.3983 80.214 52.5566 80.4584 51.8371C80.7706 50.9682 81.2593 50.2826 81.9245 49.7803C82.6033 49.2644 83.4382 49.0065 84.4293 49.0065C85.4067 49.0065 86.167 49.3459 86.71 50.0247C86.7371 50.0654 86.7643 50.079 86.7915 50.0654C86.8186 50.0518 86.8322 50.0247 86.8322 49.984V45.6261ZM86.4045 56.4596C86.6761 55.9573 86.8118 55.2717 86.8118 54.4029C86.8118 53.4933 86.6625 52.7806 86.3638 52.2647C86.0516 51.7352 85.5968 51.4705 84.9995 51.4705C84.3614 51.4705 83.8794 51.7352 83.5536 52.2647C83.2142 52.7941 83.0445 53.5137 83.0445 54.4232C83.0445 55.2378 83.1871 55.9166 83.4722 56.4596C83.8116 57.0434 84.3139 57.3352 84.9791 57.3352C85.59 57.3352 86.0651 57.0434 86.4045 56.4596Z" fill="white"/>
<path d="M97.9386 59.8603C96.8797 59.8603 95.943 59.6431 95.1285 59.2087C94.3275 58.7743 93.703 58.1701 93.255 57.3963C92.807 56.6089 92.583 55.7061 92.583 54.688V50.3301C92.583 49.3255 92.807 48.4363 93.255 47.6625C93.703 46.8887 94.3275 46.2914 95.1285 45.8705C95.943 45.4361 96.8797 45.2189 97.9386 45.2189C99.0111 45.2189 99.9478 45.4361 100.749 45.8705C101.563 46.2914 102.195 46.8887 102.643 47.6625C103.091 48.4363 103.315 49.3255 103.315 50.3301V54.688C103.315 55.7061 103.091 56.6089 102.643 57.3963C102.195 58.1837 101.563 58.7946 100.749 59.2291C99.9478 59.6499 99.0111 59.8603 97.9386 59.8603ZM97.9386 57.3963C98.6853 57.3963 99.2894 57.1588 99.751 56.6836C100.213 56.2085 100.443 55.5772 100.443 54.7898V50.3098C100.443 49.5224 100.213 48.8911 99.751 48.416C99.303 47.9272 98.6989 47.6829 97.9386 47.6829C97.192 47.6829 96.5878 47.9272 96.1263 48.416C95.6783 48.8911 95.4543 49.5224 95.4543 50.3098V54.7898C95.4543 55.5772 95.6783 56.2085 96.1263 56.6836C96.5878 57.1588 97.192 57.3963 97.9386 57.3963Z" fill="white"/>
<path d="M115.494 51.9796C115.738 52.672 115.861 53.4865 115.861 54.4232C115.861 55.36 115.732 56.2084 115.474 56.9687C115.161 57.8375 114.666 58.5299 113.987 59.0458C113.322 59.5481 112.494 59.7992 111.503 59.7992C110.525 59.7992 109.765 59.4598 109.222 58.7811C109.195 58.7403 109.168 58.7268 109.141 58.7403C109.113 58.7539 109.1 58.7811 109.1 58.8218V63.1796C109.1 63.2475 109.073 63.3018 109.018 63.3425C108.978 63.3968 108.923 63.424 108.855 63.424H106.473C106.405 63.424 106.344 63.3968 106.29 63.3425C106.249 63.3018 106.229 63.2475 106.229 63.1796V49.4138C106.229 49.3459 106.249 49.2916 106.29 49.2509C106.344 49.1966 106.405 49.1694 106.473 49.1694H108.855C108.923 49.1694 108.978 49.1966 109.018 49.2509C109.073 49.2916 109.1 49.3459 109.1 49.4138V50.0858C109.1 50.1265 109.113 50.1537 109.141 50.1672C109.168 50.1672 109.195 50.1537 109.222 50.1265C109.792 49.3798 110.58 49.0065 111.584 49.0065C112.521 49.0065 113.329 49.2712 114.007 49.8007C114.7 50.3166 115.195 51.0429 115.494 51.9796ZM112.378 56.5411C112.718 56.0116 112.887 55.2921 112.887 54.3825C112.887 53.5272 112.745 52.8485 112.46 52.3461C112.148 51.7624 111.645 51.4705 110.953 51.4705C110.328 51.4705 109.86 51.7624 109.548 52.3461C109.263 52.8349 109.12 53.5205 109.12 54.4029C109.12 55.3125 109.27 56.0184 109.568 56.5207C109.88 57.0637 110.342 57.3352 110.953 57.3352C111.564 57.3352 112.039 57.0705 112.378 56.5411Z" fill="white"/>
<path d="M122.71 59.7789C121.8 59.7789 121.006 59.6499 120.327 59.392C119.649 59.134 119.119 58.7743 118.739 58.3127C118.373 57.8511 118.189 57.3285 118.189 56.7447V56.5411C118.189 56.4732 118.21 56.4189 118.25 56.3781C118.305 56.3238 118.366 56.2967 118.434 56.2967H120.694C120.762 56.2967 120.816 56.3238 120.857 56.3781C120.911 56.4189 120.938 56.4732 120.938 56.5411V56.5614C120.938 56.8601 121.101 57.118 121.427 57.3352C121.767 57.5389 122.187 57.6407 122.69 57.6407C123.151 57.6407 123.525 57.5525 123.81 57.376C124.095 57.1859 124.237 56.9551 124.237 56.6836C124.237 56.4392 124.115 56.256 123.871 56.1338C123.626 56.0116 123.226 55.8826 122.669 55.7469C122.031 55.584 121.529 55.4278 121.162 55.2785C120.294 54.9798 119.601 54.6133 119.085 54.1789C118.569 53.7445 118.311 53.12 118.311 52.3054C118.311 51.3008 118.698 50.5066 119.472 49.9229C120.26 49.3255 121.298 49.0269 122.588 49.0269C123.457 49.0269 124.217 49.1694 124.869 49.4545C125.52 49.726 126.023 50.1129 126.376 50.6152C126.742 51.1175 126.925 51.6877 126.925 52.3258C126.925 52.3937 126.898 52.4548 126.844 52.5091C126.803 52.5498 126.749 52.5701 126.681 52.5701H124.502C124.434 52.5701 124.373 52.5498 124.319 52.5091C124.278 52.4548 124.258 52.3937 124.258 52.3258C124.258 52.0271 124.102 51.776 123.789 51.5723C123.491 51.3687 123.09 51.2669 122.588 51.2669C122.14 51.2669 121.773 51.3483 121.488 51.5112C121.203 51.6741 121.061 51.8981 121.061 52.1832C121.061 52.4548 121.196 52.6584 121.468 52.7941C121.753 52.9299 122.221 53.0724 122.873 53.2218C123.022 53.2625 123.192 53.31 123.382 53.3643C123.572 53.4051 123.776 53.4594 123.993 53.5272C124.957 53.8123 125.717 54.1789 126.274 54.6269C126.83 55.0749 127.109 55.7265 127.109 56.5818C127.109 57.5864 126.708 58.3738 125.907 58.944C125.12 59.5006 124.054 59.7789 122.71 59.7789Z" fill="white"/>
</svg>
