<?xml version="1.0" encoding="UTF-8"?>
<!DOCTYPE svg PUBLIC "-//W3C//DTD SVG 1.1//EN" "http://www.w3.org/Graphics/SVG/1.1/DTD/svg11.dtd">
<svg xmlns="http://www.w3.org/2000/svg" version="1.1" width="150px" height="150px" style="shape-rendering:geometricPrecision; text-rendering:geometricPrecision; image-rendering:optimizeQuality; fill-rule:evenodd; clip-rule:evenodd" xmlns:xlink="http://www.w3.org/1999/xlink">
<g><path style="opacity:0.824" fill="#0ec9ab" d="M 61.5,-0.5 C 69.8333,-0.5 78.1667,-0.5 86.5,-0.5C 123.315,9.3224 142.315,33.3224 143.5,71.5C 121.167,71.5 98.8333,71.5 76.5,71.5C 76.5,93.8333 76.5,116.167 76.5,138.5C 47.817,138.416 26.317,126.083 12,101.5C -2.11209,69.4012 3.05458,40.9012 27.5,16C 37.7257,8.05285 49.0591,2.55285 61.5,-0.5 Z M 58.5,5.5 C 59.8734,5.34332 61.2068,5.50999 62.5,6C 57,10.1667 52.1667,15 48,20.5C 44.6279,19.2305 41.4612,17.5639 38.5,15.5C 44.6669,11.0832 51.3336,7.74988 58.5,5.5 Z M 85.5,6.5 C 85.7352,5.90326 86.2352,5.56993 87,5.5C 95.1827,7.39046 102.683,10.7238 109.5,15.5C 106.539,17.5639 103.372,19.2305 100,20.5C 95.9377,14.9359 91.1043,10.2693 85.5,6.5 Z M 70.5,6.5 C 71.4896,12.31 71.8229,18.31 71.5,24.5C 65.7037,24.5339 60.0371,23.7006 54.5,22C 59.0676,15.9306 64.401,10.7639 70.5,6.5 Z M 76.5,6.5 C 83.1976,10.6859 89.1976,15.8526 94.5,22C 88.5912,23.5489 82.5912,24.3822 76.5,24.5C 76.5,18.5 76.5,12.5 76.5,6.5 Z M 31.5,19.5 C 36.1033,21.4247 40.77,23.2581 45.5,25C 37.7012,37.3574 33.5345,50.8574 33,65.5C 25.253,66.4817 17.4197,66.815 9.5,66.5C 10.6512,47.8676 17.9846,32.201 31.5,19.5 Z M 113.5,19.5 C 115.861,20.4348 118.028,21.7682 120,23.5C 131.083,35.6715 137.25,50.0048 138.5,66.5C 130.833,66.5 123.167,66.5 115.5,66.5C 115.137,51.7463 111.137,38.0797 103.5,25.5C 106.897,23.4741 110.23,21.4741 113.5,19.5 Z M 50.5,26.5 C 57.2915,28.6866 64.2915,29.6866 71.5,29.5C 71.5,41.8333 71.5,54.1667 71.5,66.5C 60.5,66.5 49.5,66.5 38.5,66.5C 38.7882,52.0052 42.7882,38.6719 50.5,26.5 Z M 95.5,26.5 C 97.0174,26.5106 98.1841,27.1772 99,28.5C 105.966,40.2293 109.799,52.896 110.5,66.5C 99.1667,66.5 87.8333,66.5 76.5,66.5C 76.5,54.1667 76.5,41.8333 76.5,29.5C 83.1776,29.8727 89.511,28.8727 95.5,26.5 Z M 9.5,71.5 C 17.5,71.5 25.5,71.5 33.5,71.5C 33.3193,84.9444 36.6527,97.4444 43.5,109C 38.8017,110.766 34.3017,112.933 30,115.5C 17.5088,103.515 10.6754,88.8485 9.5,71.5 Z M 38.5,71.5 C 49.5,71.5 60.5,71.5 71.5,71.5C 71.5,82.1667 71.5,92.8333 71.5,103.5C 63.7636,103.676 56.2636,105.009 49,107.5C 42.1662,96.4961 38.6662,84.4961 38.5,71.5 Z M 67.5,108.5 C 68.8333,108.5 70.1667,108.5 71.5,108.5C 71.6663,115.841 71.4997,123.174 71,130.5C 63.5399,125.374 57.0399,119.207 51.5,112C 56.9052,110.504 62.2386,109.337 67.5,108.5 Z M 62.5,131.5 C 52.1128,130.47 43.1128,126.47 35.5,119.5C 38.5894,116.869 42.0894,114.869 46,113.5C 50.6573,120.322 56.1573,126.322 62.5,131.5 Z"/></g>
<g><path style="opacity:0.867" fill="#11c9ac" d="M 139.5,149.5 C 121.167,149.5 102.833,149.5 84.5,149.5C 83.4955,148.317 82.6622,146.984 82,145.5C 81.3333,133.833 81.3333,122.167 82,110.5C 82.4652,109.069 83.2986,107.903 84.5,107C 86.8098,106.503 89.1432,106.337 91.5,106.5C 91.3338,100.491 91.5005,94.4908 92,88.5C 98.6782,75.6053 108.845,71.7719 122.5,77C 128.327,80.1585 131.827,84.9918 133,91.5C 133.499,96.4889 133.666,101.489 133.5,106.5C 136.97,105.875 139.804,106.875 142,109.5C 142.667,121.833 142.667,134.167 142,146.5C 141.302,147.691 140.469,148.691 139.5,149.5 Z M 110.5,79.5 C 120.206,80.0422 126.039,85.0422 128,94.5C 128.499,98.4862 128.666,102.486 128.5,106.5C 126.833,106.5 125.167,106.5 123.5,106.5C 123.666,101.156 123.499,95.8229 123,90.5C 116.772,82.1235 109.772,81.4568 102,88.5C 100.59,94.3792 100.09,100.379 100.5,106.5C 99.1667,106.5 97.8333,106.5 96.5,106.5C 96.334,101.156 96.5006,95.8229 97,90.5C 99.6157,84.3723 104.116,80.7057 110.5,79.5 Z M 108.5,89.5 C 112.287,88.8144 115.454,89.8144 118,92.5C 118.499,97.1548 118.666,101.821 118.5,106.5C 114.167,106.5 109.833,106.5 105.5,106.5C 105.334,102.154 105.501,97.8206 106,93.5C 106.662,92.0161 107.496,90.6828 108.5,89.5 Z M 110.5,120.5 C 112.681,120.284 114.347,121.117 115.5,123C 114.056,126.325 113.056,129.825 112.5,133.5C 111.865,129.997 110.865,126.663 109.5,123.5C 109.685,122.416 110.018,121.416 110.5,120.5 Z"/></g>
<g><path style="opacity:1" fill="#f9fdfd" d="M 87.5,110.5 C 103.837,110.333 120.17,110.5 136.5,111C 137.488,122.419 137.821,133.919 137.5,145.5C 120.83,145.667 104.163,145.5 87.5,145C 86.1768,133.5 86.1768,122 87.5,110.5 Z M 110.5,120.5 C 110.018,121.416 109.685,122.416 109.5,123.5C 110.865,126.663 111.865,129.997 112.5,133.5C 113.056,129.825 114.056,126.325 115.5,123C 114.347,121.117 112.681,120.284 110.5,120.5 Z"/></g>
<g><path style="opacity:0.91" fill="#26cbaf" d="M 109.5,115.5 C 115.574,114.919 118.908,117.586 119.5,123.5C 119.281,128.229 118.281,132.729 116.5,137C 112.845,139.335 109.679,138.835 107,135.5C 106.674,131.372 105.84,127.372 104.5,123.5C 104.672,119.807 106.339,117.141 109.5,115.5 Z M 110.5,120.5 C 110.018,121.416 109.685,122.416 109.5,123.5C 110.865,126.663 111.865,129.997 112.5,133.5C 113.056,129.825 114.056,126.325 115.5,123C 114.347,121.117 112.681,120.284 110.5,120.5 Z"/></g>
</svg>
