<?xml version="1.0" encoding="UTF-8"?>
<!DOCTYPE svg PUBLIC "-//W3C//DTD SVG 1.1//EN" "http://www.w3.org/Graphics/SVG/1.1/DTD/svg11.dtd">
<svg xmlns="http://www.w3.org/2000/svg" version="1.1" width="1394px" height="338px" style="shape-rendering:geometricPrecision; text-rendering:geometricPrecision; image-rendering:optimizeQuality; fill-rule:evenodd; clip-rule:evenodd" xmlns:xlink="http://www.w3.org/1999/xlink">
<g><path style="opacity:0.968" fill="#3ab6a2" d="M 117.5,-0.5 C 117.833,-0.5 118.167,-0.5 118.5,-0.5C 129.418,16.5732 144.418,28.7398 163.5,36C 183.342,42.9617 203.675,45.795 224.5,44.5C 166.833,102.5 109.167,160.5 51.5,218.5C 60.3811,231.883 70.8811,243.883 83,254.5C 134,203.5 185,152.5 236,101.5C 237.785,133.631 234.785,165.298 227,196.5C 222.719,211.394 216.052,225.061 207,237.5C 182.186,270.033 152.52,297.033 118,318.5C 84.2833,296.789 54.9499,270.123 30,238.5C 24.5706,230.894 19.7372,222.894 15.5,214.5C 64.153,165.347 112.986,116.347 162,67.5C 150.998,63.0044 139.831,57.8378 128.5,52C 125.5,49.8333 122.5,47.6667 119.5,45.5C 81.0137,83.4863 42.6803,121.653 4.5,160C 3.25591,160.456 2.42258,159.956 2,158.5C 1.27195,150.004 0.438615,141.67 -0.5,133.5C -0.5,115.5 -0.5,97.5 -0.5,79.5C 0.462396,67.2745 1.79573,54.9411 3.5,42.5C 40.2389,48.8582 73.2389,40.6915 102.5,18C 108.835,12.7793 113.835,6.61262 117.5,-0.5 Z M 48.5,70.5 C 49.8734,70.3433 51.2068,70.51 52.5,71C 44.3333,79.1667 36.1667,87.3333 28,95.5C 27.8876,87.8396 28.0543,80.173 28.5,72.5C 35.3859,72.6026 42.0526,71.936 48.5,70.5 Z M 202.5,175.5 C 200.827,188.353 196.66,200.353 190,211.5C 170.376,240.125 146.376,264.458 118,284.5C 113.978,280.977 109.811,277.643 105.5,274.5C 104.479,273.998 104.312,273.332 105,272.5C 137.368,239.965 169.868,207.632 202.5,175.5 Z"/></g>
<g><path style="opacity:0.954" fill="#fefffe" d="M 1064.5,61.5 C 1076.91,60.4473 1085.07,65.7807 1089,77.5C 1090.71,88.2346 1086.55,95.7346 1076.5,100C 1063.36,103.743 1053.86,99.5758 1048,87.5C 1045.69,73.761 1051.19,65.0943 1064.5,61.5 Z"/></g>
<g><path style="opacity:0.975" fill="#fefffe" d="M 416.5,70.5 C 447,66.7196 472.833,75.7196 494,97.5C 502.994,109.31 508.161,122.643 509.5,137.5C 496.15,137.833 482.817,137.499 469.5,136.5C 465.482,119.314 454.815,109.148 437.5,106C 409.607,104.373 392.44,117.206 386,144.5C 384,158.167 384,171.833 386,185.5C 393.237,214.745 411.737,227.245 441.5,223C 456.379,218.954 465.712,209.454 469.5,194.5C 482.817,193.501 496.15,193.167 509.5,193.5C 504.658,225.177 486.992,246.011 456.5,256C 420.444,265.75 389.61,257.25 364,230.5C 347.725,207.83 341.058,182.497 344,154.5C 347.431,108.257 371.598,80.2565 416.5,70.5 Z"/></g>
<g><path style="opacity:0.972" fill="#fefffe" d="M 959.5,85.5 C 972.5,85.5 985.5,85.5 998.5,85.5C 998.5,96.5 998.5,107.5 998.5,118.5C 1007.17,118.5 1015.83,118.5 1024.5,118.5C 1024.5,128.5 1024.5,138.5 1024.5,148.5C 1015.83,148.5 1007.17,148.5 998.5,148.5C 998.333,172.169 998.5,195.836 999,219.5C 1001.1,224.89 1005.1,227.557 1011,227.5C 1014.09,227.043 1017.09,226.377 1020,225.5C 1022.7,234.469 1024.87,243.636 1026.5,253C 1025.57,255.76 1023.57,257.093 1020.5,257C 1010.55,258.531 1000.55,258.865 990.5,258C 973.403,255.235 963.236,245.402 960,228.5C 959.5,201.835 959.333,175.169 959.5,148.5C 953.167,148.5 946.833,148.5 940.5,148.5C 940.5,138.5 940.5,128.5 940.5,118.5C 946.833,118.5 953.167,118.5 959.5,118.5C 959.5,107.5 959.5,96.5 959.5,85.5 Z"/></g>
<g><path style="opacity:0.98" fill="#fefffe" d="M 600.5,116.5 C 606.863,116.407 613.196,116.74 619.5,117.5C 619.5,129.167 619.5,140.833 619.5,152.5C 607.635,148.853 596.302,150.02 585.5,156C 581.241,159.358 578.074,163.525 576,168.5C 574.532,197.783 574.032,227.116 574.5,256.5C 561.5,256.5 548.5,256.5 535.5,256.5C 535.5,210.5 535.5,164.5 535.5,118.5C 548.167,118.5 560.833,118.5 573.5,118.5C 573.334,126.174 573.5,133.841 574,141.5C 577.927,127.815 586.761,119.481 600.5,116.5 Z"/></g>
<g><path style="opacity:0.98" fill="#fefffe" d="M 859.5,116.5 C 896.456,115.285 917.956,132.952 924,169.5C 926.878,188.258 925.212,206.592 919,224.5C 905.159,253.167 882.659,263.667 851.5,256C 842.055,251.555 834.888,244.721 830,235.5C 829.5,259.831 829.333,284.164 829.5,308.5C 816.5,308.5 803.5,308.5 790.5,308.5C 790.5,245.167 790.5,181.833 790.5,118.5C 803.167,118.5 815.833,118.5 828.5,118.5C 828.334,126.174 828.5,133.841 829,141.5C 835.202,128.114 845.369,119.781 859.5,116.5 Z M 852.5,147.5 C 868.369,146.863 878.536,154.196 883,169.5C 887.701,186.396 885.701,202.396 877,217.5C 863.036,231.062 849.369,230.729 836,216.5C 826.813,198.503 826.147,180.169 834,161.5C 838.344,154.31 844.511,149.643 852.5,147.5 Z"/></g>
<g><path style="opacity:0.973" fill="#fefffe" d="M 1306.5,116.5 C 1326.22,114.117 1344.56,117.951 1361.5,128C 1370,134.492 1375.16,142.992 1377,153.5C 1377.5,187.832 1377.67,222.165 1377.5,256.5C 1365.17,256.5 1352.83,256.5 1340.5,256.5C 1340.67,250.491 1340.5,244.491 1340,238.5C 1330.54,252.567 1317.21,259.567 1300,259.5C 1265.21,257.907 1250.21,239.907 1255,205.5C 1260.19,190.456 1270.69,181.289 1286.5,178C 1300.09,175.49 1313.75,173.49 1327.5,172C 1337.84,170.156 1341.01,164.322 1337,154.5C 1334.71,150.212 1331.21,147.378 1326.5,146C 1315.17,143.113 1305.67,145.946 1298,154.5C 1296.44,156.217 1295.61,158.217 1295.5,160.5C 1283.16,159.889 1270.83,159.222 1258.5,158.5C 1261.63,141.193 1271.3,129.027 1287.5,122C 1293.82,119.675 1300.15,117.842 1306.5,116.5 Z M 1337.5,193.5 C 1342.37,219.8 1331.37,232.3 1304.5,231C 1294.28,228.437 1290.11,221.937 1292,211.5C 1294.47,206.011 1298.64,202.511 1304.5,201C 1315.78,199.128 1326.78,196.628 1337.5,193.5 Z"/></g>
<g><path style="opacity:0.971" fill="#fefffe" d="M 632.5,118.5 C 646.183,118.167 659.85,118.501 673.5,119.5C 682.999,152.828 692.499,186.161 702,219.5C 711.972,185.942 721.472,152.275 730.5,118.5C 744.516,118.167 758.516,118.501 772.5,119.5C 753.629,173.614 734.462,227.614 715,281.5C 704.524,300.077 688.524,309.077 667,308.5C 660.428,308.228 653.928,307.395 647.5,306C 645.579,305.64 643.912,304.806 642.5,303.5C 645.568,293.797 648.734,284.13 652,274.5C 667.02,281.075 676.854,276.409 681.5,260.5C 664.761,213.281 648.427,165.948 632.5,118.5 Z"/></g>
<g><path style="opacity:0.984" fill="#fefffe" d="M 1048.5,118.5 C 1061.5,118.5 1074.5,118.5 1087.5,118.5C 1087.5,164.5 1087.5,210.5 1087.5,256.5C 1074.5,256.5 1061.5,256.5 1048.5,256.5C 1048.5,210.5 1048.5,164.5 1048.5,118.5 Z"/></g>
<g><path style="opacity:0.972" fill="#fefffe" d="M 1105.5,118.5 C 1119.18,118.167 1132.85,118.501 1146.5,119.5C 1156.15,151.782 1165.65,184.116 1175,216.5C 1185.11,184.045 1194.61,151.379 1203.5,118.5C 1217.52,118.167 1231.52,118.501 1245.5,119.5C 1229.57,164.796 1213.73,210.129 1198,255.5C 1182.91,256.491 1167.74,256.824 1152.5,256.5C 1136.83,210.5 1121.17,164.5 1105.5,118.5 Z"/></g>
</svg>
